<svg xmlns="http://www.w3.org/2000/svg" xmlns:xlink="http://www.w3.org/1999/xlink" width="500" zoomAndPan="magnify" viewBox="0 0 375 374.999991" height="500" preserveAspectRatio="xMidYMid meet" version="1.0"><defs><clipPath id="4a3ea3b4cf"><path d="M 162 301 L 204 301 L 204 345 L 162 345 Z M 162 301 " clip-rule="nonzero"/></clipPath><clipPath id="04a8a46945"><path d="M 162.105469 315.046875 L 177.445312 301.433594 L 203.894531 331.230469 L 188.554688 344.84375 Z M 162.105469 315.046875 " clip-rule="nonzero"/></clipPath><clipPath id="34ac132121"><path d="M 162.105469 315.046875 L 177.425781 301.449219 L 203.828125 331.199219 L 188.511719 344.792969 Z M 162.105469 315.046875 " clip-rule="nonzero"/></clipPath><clipPath id="d9268e1488"><path d="M 10.140625 8 L 364.890625 8 L 364.890625 367 L 10.140625 367 Z M 10.140625 8 " clip-rule="nonzero"/></clipPath></defs><g clip-path="url(#4a3ea3b4cf)"><g clip-path="url(#04a8a46945)"><g clip-path="url(#34ac132121)"><path fill="#ffffff" d="M 162.105469 315.046875 L 177.445312 301.433594 L 203.894531 331.230469 L 188.554688 344.84375 Z M 162.105469 315.046875 " fill-opacity="1" fill-rule="nonzero"/></g></g></g><path fill="#f7d300" d="M 163.625 81.65625 C 166.152344 82 168.605469 82.625 170.988281 83.527344 C 173.371094 84.425781 175.621094 85.585938 177.742188 86.996094 C 179.863281 88.410156 181.800781 90.042969 183.550781 91.894531 C 185.300781 93.746094 186.820312 95.769531 188.113281 97.96875 C 187.207031 98.269531 186.351562 98.667969 185.539062 99.167969 C 184.726562 99.667969 183.984375 100.257812 183.3125 100.929688 C 182.636719 101.605469 182.050781 102.347656 181.550781 103.160156 C 181.050781 103.972656 180.648438 104.828125 180.347656 105.734375 L 125.882812 105.734375 C 126.402344 103.976562 127.0625 102.269531 127.859375 100.617188 C 128.65625 98.964844 129.578125 97.382812 130.625 95.878906 C 131.675781 94.375 132.839844 92.964844 134.117188 91.648438 C 135.394531 90.328125 136.765625 89.121094 138.238281 88.027344 C 139.707031 86.929688 141.253906 85.957031 142.882812 85.109375 C 144.507812 84.261719 146.191406 83.550781 147.933594 82.972656 C 149.675781 82.398438 151.449219 81.964844 153.261719 81.671875 C 155.074219 81.382812 156.894531 81.238281 158.730469 81.238281 C 160.375 81.230469 162.007812 81.371094 163.625 81.65625 Z M 163.625 81.65625 " fill-opacity="1" fill-rule="nonzero"/><path fill="#f4edea" d="M 163.625 81.65625 C 161.96875 81.363281 160.292969 81.226562 158.609375 81.238281 C 156.777344 81.238281 154.953125 81.382812 153.140625 81.671875 C 151.332031 81.964844 149.554688 82.398438 147.816406 82.972656 C 146.074219 83.550781 144.390625 84.261719 142.761719 85.109375 C 141.136719 85.957031 139.585938 86.929688 138.117188 88.027344 C 136.648438 89.121094 135.273438 90.328125 133.996094 91.648438 C 132.71875 92.964844 131.558594 94.375 130.507812 95.878906 C 129.457031 97.382812 128.535156 98.964844 127.738281 100.617188 C 126.941406 102.269531 126.285156 103.976562 125.761719 105.734375 L 99.84375 105.734375 C 99.210938 105.734375 98.589844 105.664062 97.972656 105.523438 C 97.359375 105.386719 96.765625 105.179688 96.195312 104.910156 C 95.625 104.636719 95.089844 104.308594 94.59375 103.917969 C 94.097656 103.53125 93.648438 103.089844 93.25 102.601562 C 92.847656 102.113281 92.507812 101.589844 92.222656 101.023438 C 91.941406 100.460938 91.722656 99.871094 91.570312 99.257812 C 91.417969 98.644531 91.335938 98.023438 91.320312 97.394531 C 91.304688 96.761719 91.359375 96.136719 91.480469 95.519531 C 91.867188 93.488281 92.339844 91.476562 92.898438 89.484375 C 93.457031 87.496094 94.101562 85.53125 94.828125 83.597656 C 95.558594 81.660156 96.367188 79.761719 97.261719 77.898438 C 98.15625 76.03125 99.125 74.210938 100.175781 72.429688 C 101.226562 70.648438 102.351562 68.917969 103.554688 67.234375 C 104.753906 65.550781 106.023438 63.921875 107.367188 62.347656 C 108.707031 60.777344 110.113281 59.261719 111.585938 57.8125 C 113.058594 56.359375 114.589844 54.976562 116.179688 53.65625 C 117.773438 52.335938 119.417969 51.089844 121.117188 49.914062 C 122.816406 48.738281 124.566406 47.636719 126.359375 46.609375 C 128.15625 45.585938 129.992188 44.640625 131.867188 43.773438 C 133.746094 42.90625 135.65625 42.125 137.597656 41.421875 C 139.542969 40.722656 141.515625 40.105469 143.511719 39.574219 C 145.511719 39.046875 147.527344 38.601562 149.5625 38.246094 C 151.597656 37.890625 153.648438 37.625 155.707031 37.445312 C 157.765625 37.265625 159.828125 37.175781 161.894531 37.175781 C 163.960938 37.175781 166.023438 37.265625 168.082031 37.445312 C 170.144531 37.625 172.191406 37.890625 174.226562 38.246094 C 176.261719 38.601562 178.277344 39.046875 180.277344 39.574219 C 182.273438 40.105469 184.246094 40.722656 186.191406 41.421875 C 188.132812 42.125 190.046875 42.90625 191.921875 43.773438 C 193.796875 44.640625 195.632812 45.585938 197.429688 46.609375 C 199.222656 47.636719 200.972656 48.738281 202.671875 49.914062 C 204.371094 51.089844 206.015625 52.335938 207.609375 53.65625 C 209.199219 54.976562 210.730469 56.359375 212.203125 57.8125 C 213.675781 59.261719 215.082031 60.777344 216.421875 62.347656 C 217.765625 63.921875 219.035156 65.550781 220.234375 67.234375 C 221.4375 68.917969 222.5625 70.648438 223.613281 72.429688 C 224.664062 74.210938 225.632812 76.03125 226.527344 77.898438 C 227.421875 79.761719 228.230469 81.660156 228.960938 83.597656 C 229.6875 85.53125 230.332031 87.496094 230.890625 89.484375 C 231.449219 91.476562 231.921875 93.488281 232.308594 95.519531 C 232.367188 96.09375 232.367188 96.671875 232.308594 97.25 L 192.171875 97.25 C 190.777344 97.242188 189.421875 97.480469 188.113281 97.96875 C 186.820312 95.769531 185.300781 93.746094 183.550781 91.894531 C 181.800781 90.042969 179.863281 88.410156 177.742188 86.996094 C 175.621094 85.585938 173.371094 84.425781 170.988281 83.527344 C 168.605469 82.625 166.152344 82 163.625 81.65625 Z M 163.625 81.65625 " fill-opacity="1" fill-rule="nonzero"/><path fill="#a2c5d3" d="M 180.347656 105.734375 C 179.859375 107.042969 179.621094 108.398438 179.632812 109.796875 L 179.632812 277.203125 L 39.046875 277.203125 C 38.296875 277.203125 37.550781 277.167969 36.804688 277.09375 C 36.0625 277.019531 35.320312 276.910156 34.585938 276.765625 C 33.855469 276.617188 33.128906 276.433594 32.414062 276.21875 C 31.695312 276 30.992188 275.746094 30.300781 275.460938 C 29.609375 275.175781 28.933594 274.855469 28.273438 274.5 C 27.617188 274.148438 26.972656 273.761719 26.351562 273.34375 C 25.730469 272.929688 25.128906 272.480469 24.554688 272.007812 C 23.976562 271.53125 23.421875 271.027344 22.894531 270.5 C 22.363281 269.96875 21.863281 269.414062 21.390625 268.832031 C 20.914062 268.253906 20.472656 267.652344 20.054688 267.03125 C 19.640625 266.40625 19.257812 265.765625 18.90625 265.101562 C 18.554688 264.441406 18.238281 263.765625 17.953125 263.074219 C 17.667969 262.382812 17.417969 261.675781 17.199219 260.960938 C 16.984375 260.242188 16.804688 259.515625 16.660156 258.78125 C 16.515625 258.046875 16.40625 257.308594 16.335938 256.5625 C 16.265625 255.816406 16.230469 255.070312 16.230469 254.320312 L 16.230469 37.207031 C 16.230469 36.457031 16.265625 35.710938 16.335938 34.964844 C 16.40625 34.21875 16.515625 33.480469 16.660156 32.746094 C 16.804688 32.011719 16.984375 31.285156 17.199219 30.566406 C 17.417969 29.851562 17.667969 29.148438 17.953125 28.453125 C 18.238281 27.761719 18.554688 27.085938 18.90625 26.425781 C 19.257812 25.761719 19.640625 25.121094 20.054688 24.5 C 20.472656 23.875 20.914062 23.273438 21.390625 22.695312 C 21.863281 22.113281 22.363281 21.558594 22.894531 21.03125 C 23.421875 20.5 23.976562 19.996094 24.554688 19.519531 C 25.128906 19.046875 25.730469 18.597656 26.351562 18.183594 C 26.972656 17.765625 27.617188 17.382812 28.273438 17.027344 C 28.933594 16.675781 29.609375 16.355469 30.300781 16.066406 C 30.992188 15.78125 31.695312 15.527344 32.414062 15.308594 C 33.128906 15.09375 33.855469 14.910156 34.585938 14.765625 C 35.320312 14.617188 36.0625 14.507812 36.804688 14.433594 C 37.550781 14.359375 38.296875 14.324219 39.046875 14.324219 L 284.683594 14.324219 C 285.433594 14.320312 286.179688 14.355469 286.925781 14.429688 C 287.671875 14.5 288.414062 14.609375 289.148438 14.753906 C 289.886719 14.898438 290.613281 15.078125 291.328125 15.296875 C 292.046875 15.511719 292.753906 15.765625 293.445312 16.050781 C 294.140625 16.335938 294.816406 16.65625 295.476562 17.007812 C 296.140625 17.359375 296.78125 17.746094 297.40625 18.160156 C 298.027344 18.578125 298.628906 19.023438 299.210938 19.5 C 299.789062 19.976562 300.34375 20.476562 300.875 21.007812 C 301.40625 21.539062 301.90625 22.09375 302.382812 22.675781 C 302.859375 23.253906 303.304688 23.855469 303.71875 24.480469 C 304.136719 25.101562 304.519531 25.746094 304.875 26.40625 C 305.226562 27.070312 305.546875 27.746094 305.832031 28.441406 C 306.117188 29.132812 306.367188 29.839844 306.585938 30.558594 C 306.800781 31.277344 306.984375 32.003906 307.128906 32.738281 C 307.273438 33.472656 307.378906 34.214844 307.453125 34.960938 C 307.523438 35.707031 307.558594 36.457031 307.558594 37.207031 L 307.558594 96.953125 L 232.484375 96.953125 C 232.546875 96.375 232.546875 95.796875 232.484375 95.21875 C 232.101562 93.1875 231.628906 91.175781 231.070312 89.1875 C 230.511719 87.195312 229.867188 85.234375 229.140625 83.296875 C 228.410156 81.363281 227.601562 79.464844 226.707031 77.597656 C 225.8125 75.734375 224.84375 73.910156 223.792969 72.128906 C 222.742188 70.351562 221.617188 68.617188 220.414062 66.933594 C 219.214844 65.25 217.945312 63.625 216.601562 62.050781 C 215.261719 60.476562 213.855469 58.964844 212.382812 57.511719 C 210.910156 56.0625 209.378906 54.675781 207.789062 53.359375 C 206.195312 52.039062 204.550781 50.792969 202.851562 49.613281 C 201.152344 48.4375 199.402344 47.335938 197.609375 46.3125 C 195.8125 45.289062 193.976562 44.339844 192.101562 43.476562 C 190.222656 42.609375 188.3125 41.824219 186.371094 41.125 C 184.425781 40.421875 182.453125 39.808594 180.457031 39.277344 C 178.457031 38.746094 176.441406 38.304688 174.40625 37.949219 C 172.371094 37.59375 170.320312 37.324219 168.261719 37.148438 C 166.203125 36.96875 164.140625 36.878906 162.074219 36.878906 C 160.007812 36.878906 157.945312 36.96875 155.886719 37.148438 C 153.824219 37.324219 151.777344 37.59375 149.742188 37.949219 C 147.707031 38.304688 145.6875 38.746094 143.691406 39.277344 C 141.695312 39.808594 139.722656 40.421875 137.777344 41.125 C 135.832031 41.824219 133.921875 42.609375 132.046875 43.476562 C 130.171875 44.339844 128.335938 45.289062 126.539062 46.3125 C 124.746094 47.335938 122.996094 48.4375 121.296875 49.613281 C 119.597656 50.792969 117.953125 52.039062 116.359375 53.359375 C 114.769531 54.675781 113.238281 56.0625 111.765625 57.511719 C 110.292969 58.964844 108.886719 60.476562 107.542969 62.050781 C 106.203125 63.625 104.933594 65.25 103.734375 66.933594 C 102.53125 68.617188 101.40625 70.351562 100.355469 72.128906 C 99.304688 73.910156 98.332031 75.734375 97.441406 77.597656 C 96.546875 79.464844 95.738281 81.363281 95.007812 83.296875 C 94.28125 85.234375 93.636719 87.195312 93.078125 89.1875 C 92.519531 91.175781 92.046875 93.1875 91.660156 95.21875 C 91.539062 95.839844 91.484375 96.464844 91.5 97.09375 C 91.511719 97.726562 91.597656 98.347656 91.75 98.960938 C 91.902344 99.574219 92.121094 100.160156 92.402344 100.726562 C 92.6875 101.289062 93.027344 101.816406 93.429688 102.304688 C 93.828125 102.792969 94.277344 103.230469 94.773438 103.621094 C 95.269531 104.011719 95.804688 104.339844 96.375 104.609375 C 96.945312 104.882812 97.535156 105.085938 98.152344 105.226562 C 98.769531 105.363281 99.390625 105.433594 100.023438 105.4375 L 180.347656 105.4375 Z M 180.347656 105.734375 " fill-opacity="1" fill-rule="nonzero"/><path fill="#a2c5d3" d="M 206.507812 313.050781 L 236.367188 313.050781 L 236.367188 342.921875 L 206.507812 342.921875 Z M 206.507812 313.050781 " fill-opacity="1" fill-rule="nonzero"/><path fill="#a2c5d3" d="M 206.507812 265.253906 L 236.367188 265.253906 L 236.367188 295.128906 L 206.507812 295.128906 Z M 206.507812 265.253906 " fill-opacity="1" fill-rule="nonzero"/><path fill="#a2c5d3" d="M 206.507812 217.457031 L 236.367188 217.457031 L 236.367188 247.332031 L 206.507812 247.332031 Z M 206.507812 217.457031 " fill-opacity="1" fill-rule="nonzero"/><path fill="#a2c5d3" d="M 254.285156 217.457031 L 284.144531 217.457031 L 284.144531 247.332031 L 254.285156 247.332031 Z M 254.285156 217.457031 " fill-opacity="1" fill-rule="nonzero"/><path fill="#a2c5d3" d="M 254.285156 265.253906 L 284.144531 265.253906 L 284.144531 295.128906 L 254.285156 295.128906 Z M 254.285156 265.253906 " fill-opacity="1" fill-rule="nonzero"/><path fill="#a2c5d3" d="M 254.285156 313.050781 L 284.144531 313.050781 L 284.144531 342.921875 L 254.285156 342.921875 Z M 254.285156 313.050781 " fill-opacity="1" fill-rule="nonzero"/><path fill="#a2c5d3" d="M 302.0625 313.050781 L 331.921875 313.050781 L 331.921875 342.921875 L 302.0625 342.921875 Z M 302.0625 313.050781 " fill-opacity="1" fill-rule="nonzero"/><path fill="#a2c5d3" d="M 302.0625 265.253906 L 331.921875 265.253906 L 331.921875 295.128906 L 302.0625 295.128906 Z M 302.0625 265.253906 " fill-opacity="1" fill-rule="nonzero"/><path fill="#a2c5d3" d="M 302.0625 217.457031 L 331.921875 217.457031 L 331.921875 247.332031 L 302.0625 247.332031 Z M 302.0625 217.457031 " fill-opacity="1" fill-rule="nonzero"/><path fill="#f4edea" d="M 243.832031 169.660156 L 243.832031 172.648438 C 243.832031 173.238281 243.777344 173.820312 243.660156 174.398438 C 243.546875 174.976562 243.375 175.535156 243.152344 176.078125 C 242.925781 176.621094 242.652344 177.140625 242.324219 177.628906 C 241.996094 178.117188 241.625 178.570312 241.210938 178.984375 C 240.792969 179.402344 240.339844 179.773438 239.851562 180.101562 C 239.363281 180.429688 238.847656 180.703125 238.304688 180.929688 C 237.761719 181.152344 237.199219 181.324219 236.621094 181.4375 C 236.046875 181.554688 235.464844 181.609375 234.875 181.609375 L 222.929688 181.609375 L 222.929688 160.699219 L 234.875 160.699219 C 235.464844 160.699219 236.046875 160.757812 236.621094 160.871094 C 237.199219 160.988281 237.761719 161.15625 238.304688 161.382812 C 238.847656 161.609375 239.363281 161.882812 239.851562 162.210938 C 240.339844 162.539062 240.792969 162.910156 241.210938 163.324219 C 241.625 163.742188 241.996094 164.195312 242.324219 164.683594 C 242.652344 165.171875 242.925781 165.6875 243.152344 166.234375 C 243.375 166.777344 243.546875 167.335938 243.660156 167.914062 C 243.777344 168.492188 243.832031 169.074219 243.832031 169.660156 Z M 243.832031 169.660156 " fill-opacity="1" fill-rule="nonzero"/><path fill="#f4edea" d="M 243.832031 151.738281 C 243.832031 152.328125 243.777344 152.910156 243.660156 153.488281 C 243.546875 154.0625 243.375 154.625 243.152344 155.167969 C 242.925781 155.710938 242.652344 156.226562 242.324219 156.71875 C 241.996094 157.207031 241.625 157.660156 241.210938 158.074219 C 240.792969 158.492188 240.339844 158.863281 239.851562 159.191406 C 239.363281 159.515625 238.847656 159.792969 238.304688 160.019531 C 237.761719 160.242188 237.199219 160.414062 236.621094 160.527344 C 236.046875 160.644531 235.464844 160.699219 234.875 160.699219 L 222.929688 160.699219 L 222.929688 139.789062 L 234.875 139.789062 C 235.464844 139.789062 236.046875 139.847656 236.621094 139.960938 C 237.199219 140.078125 237.761719 140.246094 238.304688 140.472656 C 238.847656 140.695312 239.363281 140.972656 239.851562 141.300781 C 240.339844 141.625 240.792969 142 241.210938 142.414062 C 241.625 142.832031 241.996094 143.28125 242.324219 143.773438 C 242.652344 144.261719 242.925781 144.777344 243.152344 145.320312 C 243.375 145.867188 243.546875 146.425781 243.660156 147.003906 C 243.777344 147.578125 243.832031 148.164062 243.832031 148.75 Z M 243.832031 151.738281 " fill-opacity="1" fill-rule="nonzero"/><path fill="#f4edea" d="M 243.832031 151.738281 L 243.832031 148.75 C 243.832031 148.164062 243.777344 147.578125 243.660156 147.003906 C 243.546875 146.425781 243.375 145.867188 243.152344 145.320312 C 242.925781 144.777344 242.652344 144.261719 242.324219 143.773438 C 241.996094 143.28125 241.625 142.832031 241.210938 142.414062 C 240.792969 142 240.339844 141.625 239.851562 141.300781 C 239.363281 140.972656 238.847656 140.695312 238.304688 140.472656 C 237.761719 140.246094 237.199219 140.078125 236.621094 139.960938 C 236.046875 139.847656 235.464844 139.789062 234.875 139.789062 L 222.929688 139.789062 L 222.929688 181.609375 L 234.875 181.609375 C 235.464844 181.609375 236.046875 181.554688 236.621094 181.4375 C 237.199219 181.324219 237.761719 181.152344 238.304688 180.929688 C 238.847656 180.703125 239.363281 180.429688 239.851562 180.101562 C 240.339844 179.773438 240.792969 179.402344 241.210938 178.984375 C 241.625 178.570312 241.996094 178.117188 242.324219 177.628906 C 242.652344 177.140625 242.925781 176.621094 243.152344 176.078125 C 243.375 175.535156 243.546875 174.976562 243.660156 174.398438 C 243.777344 173.820312 243.832031 173.238281 243.832031 172.648438 L 243.832031 169.660156 C 243.832031 169.074219 243.777344 168.492188 243.660156 167.914062 C 243.546875 167.335938 243.375 166.777344 243.152344 166.234375 C 242.925781 165.6875 242.652344 165.171875 242.324219 164.683594 C 241.996094 164.195312 241.625 163.742188 241.210938 163.324219 C 240.792969 162.910156 240.339844 162.539062 239.851562 162.210938 C 239.363281 161.882812 238.847656 161.609375 238.304688 161.382812 C 237.761719 161.15625 237.199219 160.988281 236.621094 160.871094 C 236.046875 160.757812 235.464844 160.699219 234.875 160.699219 C 235.464844 160.699219 236.046875 160.644531 236.621094 160.527344 C 237.199219 160.414062 237.761719 160.242188 238.304688 160.019531 C 238.847656 159.792969 239.363281 159.515625 239.851562 159.191406 C 240.339844 158.863281 240.792969 158.492188 241.210938 158.074219 C 241.625 157.660156 241.996094 157.207031 242.324219 156.71875 C 242.652344 156.226562 242.925781 155.710938 243.152344 155.167969 C 243.375 154.625 243.546875 154.0625 243.660156 153.488281 C 243.777344 152.910156 243.832031 152.328125 243.832031 151.738281 Z M 324.875 121.867188 C 325.519531 121.863281 326.160156 121.921875 326.792969 122.042969 C 327.425781 122.167969 328.039062 122.351562 328.632812 122.59375 C 329.230469 122.839844 329.796875 123.140625 330.332031 123.5 C 330.867188 123.855469 331.363281 124.261719 331.820312 124.71875 C 332.277344 125.171875 332.683594 125.667969 333.039062 126.207031 C 333.394531 126.742188 333.695312 127.308594 333.941406 127.90625 C 334.1875 128.5 334.371094 129.117188 334.492188 129.75 C 334.617188 130.382812 334.675781 131.019531 334.671875 131.664062 L 334.671875 189.738281 C 334.675781 190.382812 334.617188 191.019531 334.492188 191.652344 C 334.371094 192.285156 334.1875 192.898438 333.941406 193.496094 C 333.695312 194.089844 333.394531 194.65625 333.039062 195.195312 C 332.683594 195.730469 332.277344 196.226562 331.820312 196.683594 C 331.363281 197.136719 330.867188 197.542969 330.332031 197.902344 C 329.796875 198.257812 329.230469 198.558594 328.632812 198.804688 C 328.039062 199.050781 327.425781 199.234375 326.792969 199.355469 C 326.160156 199.480469 325.519531 199.539062 324.875 199.535156 L 213.316406 199.535156 C 212.671875 199.539062 212.03125 199.480469 211.402344 199.355469 C 210.769531 199.234375 210.152344 199.050781 209.558594 198.804688 C 208.960938 198.558594 208.394531 198.257812 207.859375 197.902344 C 207.324219 197.542969 206.828125 197.136719 206.371094 196.683594 C 205.917969 196.226562 205.511719 195.730469 205.152344 195.195312 C 204.796875 194.65625 204.496094 194.089844 204.25 193.496094 C 204.003906 192.898438 203.820312 192.285156 203.699219 191.652344 C 203.578125 191.019531 203.515625 190.382812 203.519531 189.738281 L 203.519531 131.664062 C 203.515625 131.019531 203.578125 130.382812 203.699219 129.75 C 203.820312 129.117188 204.003906 128.5 204.25 127.90625 C 204.496094 127.308594 204.796875 126.742188 205.152344 126.207031 C 205.511719 125.667969 205.917969 125.171875 206.371094 124.71875 C 206.828125 124.261719 207.324219 123.855469 207.859375 123.5 C 208.394531 123.140625 208.960938 122.839844 209.558594 122.59375 C 210.152344 122.351562 210.769531 122.167969 211.402344 122.042969 C 212.03125 121.921875 212.671875 121.863281 213.316406 121.867188 Z M 324.875 121.867188 " fill-opacity="1" fill-rule="nonzero"/><path fill="#263d66" d="M 206.507812 342.921875 L 236.367188 342.921875 L 236.367188 313.050781 L 206.507812 313.050781 Z M 254.285156 342.921875 L 284.144531 342.921875 L 284.144531 313.050781 L 254.285156 313.050781 Z M 284.144531 295.128906 L 284.144531 265.253906 L 254.285156 265.253906 L 254.285156 295.128906 Z M 284.144531 247.332031 L 284.144531 217.457031 L 254.285156 217.457031 L 254.285156 247.332031 Z M 302.0625 342.921875 L 331.921875 342.921875 L 331.921875 313.050781 L 302.0625 313.050781 Z M 331.921875 295.128906 L 331.921875 265.253906 L 302.0625 265.253906 L 302.0625 295.128906 Z M 331.921875 247.332031 L 331.921875 217.457031 L 302.0625 217.457031 L 302.0625 247.332031 Z M 213.316406 199.535156 L 324.875 199.535156 C 325.519531 199.539062 326.160156 199.480469 326.792969 199.355469 C 327.425781 199.234375 328.039062 199.050781 328.632812 198.804688 C 329.230469 198.558594 329.796875 198.257812 330.332031 197.902344 C 330.867188 197.542969 331.363281 197.136719 331.820312 196.683594 C 332.277344 196.226562 332.683594 195.730469 333.039062 195.195312 C 333.394531 194.65625 333.695312 194.089844 333.941406 193.496094 C 334.1875 192.898438 334.371094 192.285156 334.492188 191.652344 C 334.617188 191.019531 334.675781 190.382812 334.671875 189.738281 L 334.671875 131.664062 C 334.675781 131.019531 334.617188 130.382812 334.492188 129.75 C 334.371094 129.117188 334.1875 128.5 333.941406 127.90625 C 333.695312 127.308594 333.394531 126.742188 333.039062 126.207031 C 332.683594 125.667969 332.277344 125.171875 331.820312 124.71875 C 331.363281 124.261719 330.867188 123.855469 330.332031 123.5 C 329.796875 123.140625 329.230469 122.839844 328.632812 122.59375 C 328.039062 122.351562 327.425781 122.167969 326.792969 122.042969 C 326.160156 121.921875 325.519531 121.863281 324.875 121.867188 L 213.316406 121.867188 C 212.671875 121.863281 212.03125 121.921875 211.402344 122.042969 C 210.769531 122.167969 210.152344 122.351562 209.558594 122.59375 C 208.960938 122.839844 208.394531 123.140625 207.859375 123.5 C 207.324219 123.855469 206.828125 124.261719 206.371094 124.71875 C 205.917969 125.171875 205.511719 125.667969 205.152344 126.207031 C 204.796875 126.742188 204.496094 127.308594 204.25 127.90625 C 204.003906 128.5 203.820312 129.117188 203.699219 129.75 C 203.578125 130.382812 203.515625 131.019531 203.519531 131.664062 L 203.519531 189.738281 C 203.515625 190.382812 203.578125 191.019531 203.699219 191.652344 C 203.820312 192.285156 204.003906 192.898438 204.25 193.496094 C 204.496094 194.089844 204.796875 194.65625 205.152344 195.195312 C 205.511719 195.730469 205.917969 196.226562 206.371094 196.683594 C 206.828125 197.136719 207.324219 197.542969 207.859375 197.902344 C 208.394531 198.257812 208.960938 198.558594 209.558594 198.804688 C 210.152344 199.050781 210.769531 199.234375 211.402344 199.355469 C 212.03125 199.480469 212.671875 199.539062 213.316406 199.535156 Z M 346.257812 360.847656 L 192.171875 360.847656 C 191.351562 360.847656 190.535156 360.765625 189.726562 360.605469 C 188.917969 360.445312 188.136719 360.207031 187.375 359.890625 C 186.613281 359.578125 185.890625 359.191406 185.207031 358.734375 C 184.519531 358.273438 183.886719 357.753906 183.304688 357.171875 C 182.722656 356.589844 182.203125 355.957031 181.746094 355.269531 C 181.289062 354.585938 180.902344 353.863281 180.585938 353.101562 C 180.273438 352.339844 180.035156 351.554688 179.875 350.75 C 179.710938 349.941406 179.632812 349.125 179.632812 348.300781 L 179.632812 109.917969 C 179.621094 108.519531 179.859375 107.164062 180.347656 105.855469 C 180.640625 104.9375 181.035156 104.070312 181.53125 103.246094 C 182.027344 102.421875 182.613281 101.667969 183.289062 100.984375 C 183.964844 100.296875 184.707031 99.699219 185.523438 99.191406 C 186.339844 98.683594 187.203125 98.273438 188.113281 97.96875 C 189.421875 97.480469 190.777344 97.242188 192.171875 97.25 L 346.257812 97.25 C 347.082031 97.25 347.894531 97.332031 348.703125 97.492188 C 349.511719 97.652344 350.296875 97.890625 351.054688 98.207031 C 351.816406 98.519531 352.539062 98.90625 353.226562 99.363281 C 353.910156 99.824219 354.542969 100.34375 355.125 100.925781 C 355.707031 101.507812 356.226562 102.140625 356.683594 102.828125 C 357.140625 103.511719 357.527344 104.234375 357.84375 104.996094 C 358.160156 105.757812 358.398438 106.542969 358.558594 107.347656 C 358.71875 108.15625 358.796875 108.972656 358.796875 109.796875 L 358.796875 348.300781 C 358.796875 349.125 358.71875 349.941406 358.558594 350.75 C 358.398438 351.554688 358.160156 352.339844 357.84375 353.101562 C 357.527344 353.863281 357.140625 354.585938 356.683594 355.269531 C 356.226562 355.957031 355.707031 356.589844 355.125 357.171875 C 354.542969 357.753906 353.910156 358.273438 353.226562 358.734375 C 352.539062 359.191406 351.816406 359.578125 351.054688 359.890625 C 350.296875 360.207031 349.511719 360.445312 348.703125 360.605469 C 347.894531 360.765625 347.082031 360.847656 346.257812 360.847656 Z M 236.367188 217.457031 L 206.507812 217.457031 L 206.507812 247.332031 L 236.367188 247.332031 Z M 206.507812 295.128906 L 236.367188 295.128906 L 236.367188 265.253906 L 206.507812 265.253906 Z M 206.507812 295.128906 " fill-opacity="1" fill-rule="nonzero"/><g clip-path="url(#d9268e1488)"><path fill="#3a0e33" d="M 346.257812 91.277344 L 313.527344 91.277344 L 313.527344 37.503906 C 313.539062 36.554688 313.5 35.605469 313.414062 34.660156 C 313.328125 33.710938 313.195312 32.769531 313.015625 31.835938 C 312.835938 30.902344 312.613281 29.980469 312.34375 29.070312 C 312.074219 28.15625 311.761719 27.261719 311.402344 26.378906 C 311.046875 25.5 310.644531 24.636719 310.203125 23.796875 C 309.761719 22.953125 309.277344 22.136719 308.753906 21.34375 C 308.230469 20.550781 307.667969 19.785156 307.070312 19.046875 C 306.472656 18.308594 305.835938 17.601562 305.167969 16.925781 C 304.5 16.25 303.800781 15.609375 303.066406 15 C 302.335938 14.394531 301.578125 13.824219 300.789062 13.292969 C 300 12.761719 299.1875 12.269531 298.351562 11.816406 C 297.515625 11.367188 296.660156 10.957031 295.78125 10.589844 C 294.90625 10.222656 294.011719 9.902344 293.105469 9.621094 C 292.195312 9.34375 291.273438 9.109375 290.34375 8.921875 C 289.410156 8.734375 288.472656 8.589844 287.527344 8.496094 C 286.582031 8.398438 285.632812 8.351562 284.683594 8.347656 L 39.046875 8.347656 C 38.101562 8.351562 37.160156 8.398438 36.222656 8.492188 C 35.285156 8.589844 34.351562 8.726562 33.425781 8.914062 C 32.5 9.101562 31.589844 9.332031 30.6875 9.605469 C 29.785156 9.882812 28.898438 10.199219 28.027344 10.5625 C 27.15625 10.925781 26.304688 11.328125 25.472656 11.777344 C 24.640625 12.222656 23.832031 12.707031 23.046875 13.234375 C 22.265625 13.757812 21.507812 14.320312 20.78125 14.921875 C 20.050781 15.519531 19.355469 16.15625 18.6875 16.824219 C 18.019531 17.492188 17.390625 18.191406 16.789062 18.921875 C 16.191406 19.648438 15.632812 20.40625 15.109375 21.191406 C 14.585938 21.976562 14.101562 22.789062 13.65625 23.621094 C 13.214844 24.453125 12.808594 25.304688 12.449219 26.175781 C 12.089844 27.050781 11.773438 27.9375 11.5 28.839844 C 11.226562 29.742188 10.996094 30.660156 10.8125 31.585938 C 10.628906 32.511719 10.492188 33.441406 10.398438 34.382812 C 10.304688 35.320312 10.261719 36.261719 10.261719 37.207031 L 10.261719 254.320312 C 10.261719 255.265625 10.304688 256.207031 10.398438 257.144531 C 10.492188 258.085938 10.628906 259.019531 10.8125 259.945312 C 10.996094 260.871094 11.226562 261.785156 11.5 262.6875 C 11.773438 263.589844 12.089844 264.476562 12.449219 265.351562 C 12.808594 266.222656 13.214844 267.074219 13.65625 267.90625 C 14.101562 268.742188 14.585938 269.550781 15.109375 270.335938 C 15.632812 271.121094 16.191406 271.878906 16.789062 272.609375 C 17.390625 273.339844 18.019531 274.039062 18.6875 274.707031 C 19.355469 275.375 20.050781 276.007812 20.78125 276.605469 C 21.507812 277.207031 22.265625 277.769531 23.046875 278.292969 C 23.832031 278.820312 24.640625 279.304688 25.472656 279.75 C 26.304688 280.199219 27.15625 280.601562 28.027344 280.964844 C 28.898438 281.328125 29.785156 281.644531 30.6875 281.921875 C 31.589844 282.195312 32.5 282.429688 33.425781 282.613281 C 34.351562 282.800781 35.285156 282.941406 36.222656 283.035156 C 37.160156 283.128906 38.101562 283.175781 39.046875 283.179688 L 173.660156 283.179688 L 173.660156 348.300781 C 173.660156 348.90625 173.691406 349.511719 173.75 350.117188 C 173.808594 350.71875 173.898438 351.320312 174.015625 351.914062 C 174.132812 352.507812 174.28125 353.097656 174.457031 353.675781 C 174.632812 354.257812 174.835938 354.828125 175.070312 355.386719 C 175.300781 355.949219 175.558594 356.496094 175.847656 357.03125 C 176.132812 357.566406 176.441406 358.085938 176.78125 358.589844 C 177.117188 359.09375 177.476562 359.582031 177.863281 360.050781 C 178.246094 360.519531 178.652344 360.96875 179.082031 361.398438 C 179.511719 361.824219 179.960938 362.234375 180.429688 362.617188 C 180.898438 363.003906 181.382812 363.363281 181.886719 363.699219 C 182.390625 364.039062 182.910156 364.347656 183.445312 364.636719 C 183.980469 364.921875 184.527344 365.179688 185.089844 365.410156 C 185.648438 365.644531 186.21875 365.847656 186.800781 366.023438 C 187.378906 366.199219 187.96875 366.347656 188.5625 366.464844 C 189.15625 366.585938 189.753906 366.671875 190.359375 366.734375 C 190.960938 366.792969 191.566406 366.820312 192.171875 366.820312 L 346.257812 366.820312 C 346.863281 366.820312 347.46875 366.792969 348.070312 366.734375 C 348.675781 366.671875 349.273438 366.585938 349.867188 366.464844 C 350.464844 366.347656 351.050781 366.199219 351.632812 366.023438 C 352.210938 365.847656 352.78125 365.644531 353.34375 365.410156 C 353.902344 365.179688 354.449219 364.921875 354.984375 364.636719 C 355.519531 364.347656 356.039062 364.039062 356.542969 363.699219 C 357.046875 363.363281 357.535156 363.003906 358.003906 362.617188 C 358.472656 362.234375 358.917969 361.824219 359.347656 361.398438 C 359.777344 360.96875 360.183594 360.519531 360.570312 360.050781 C 360.953125 359.582031 361.3125 359.09375 361.652344 358.589844 C 361.988281 358.085938 362.300781 357.566406 362.585938 357.03125 C 362.871094 356.496094 363.128906 355.949219 363.363281 355.386719 C 363.59375 354.828125 363.796875 354.257812 363.972656 353.675781 C 364.148438 353.097656 364.296875 352.507812 364.414062 351.914062 C 364.535156 351.320312 364.621094 350.71875 364.683594 350.117188 C 364.742188 349.511719 364.769531 348.90625 364.769531 348.300781 L 364.769531 109.917969 C 364.773438 109.308594 364.75 108.699219 364.691406 108.09375 C 364.636719 107.488281 364.550781 106.882812 364.4375 106.285156 C 364.320312 105.6875 364.175781 105.097656 364.003906 104.515625 C 363.828125 103.929688 363.625 103.355469 363.394531 102.792969 C 363.164062 102.226562 362.910156 101.675781 362.625 101.140625 C 362.339844 100.601562 362.027344 100.078125 361.691406 99.570312 C 361.355469 99.0625 360.996094 98.570312 360.609375 98.097656 C 360.226562 97.628906 359.820312 97.175781 359.390625 96.742188 C 358.960938 96.3125 358.511719 95.902344 358.042969 95.511719 C 357.574219 95.125 357.085938 94.761719 356.582031 94.421875 C 356.074219 94.082031 355.554688 93.769531 355.015625 93.480469 C 354.480469 93.191406 353.933594 92.929688 353.371094 92.699219 C 352.808594 92.464844 352.234375 92.257812 351.652344 92.078125 C 351.070312 91.902344 350.480469 91.753906 349.882812 91.636719 C 349.285156 91.515625 348.683594 91.425781 348.078125 91.367188 C 347.472656 91.304688 346.867188 91.277344 346.257812 91.277344 Z M 39.046875 271.230469 C 38.492188 271.226562 37.941406 271.199219 37.394531 271.140625 C 36.84375 271.085938 36.296875 271.003906 35.757812 270.894531 C 35.214844 270.785156 34.679688 270.648438 34.152344 270.488281 C 33.625 270.324219 33.105469 270.136719 32.597656 269.925781 C 32.085938 269.710938 31.589844 269.476562 31.101562 269.214844 C 30.617188 268.953125 30.144531 268.667969 29.683594 268.359375 C 29.226562 268.050781 28.785156 267.722656 28.359375 267.371094 C 27.929688 267.019531 27.523438 266.648438 27.132812 266.257812 C 26.742188 265.863281 26.375 265.457031 26.023438 265.027344 C 25.675781 264.601562 25.347656 264.15625 25.039062 263.695312 C 24.734375 263.238281 24.449219 262.761719 24.191406 262.273438 C 23.929688 261.789062 23.695312 261.289062 23.484375 260.777344 C 23.273438 260.265625 23.089844 259.746094 22.929688 259.21875 C 22.769531 258.691406 22.636719 258.15625 22.527344 257.613281 C 22.421875 257.070312 22.339844 256.523438 22.285156 255.976562 C 22.230469 255.425781 22.203125 254.875 22.203125 254.320312 L 22.203125 37.207031 C 22.203125 36.652344 22.230469 36.101562 22.285156 35.554688 C 22.339844 35.003906 22.421875 34.457031 22.527344 33.914062 C 22.636719 33.375 22.769531 32.839844 22.929688 32.308594 C 23.089844 31.78125 23.273438 31.261719 23.484375 30.75 C 23.695312 30.238281 23.929688 29.738281 24.191406 29.253906 C 24.449219 28.765625 24.734375 28.292969 25.039062 27.832031 C 25.347656 27.371094 25.675781 26.929688 26.023438 26.5 C 26.375 26.074219 26.742188 25.664062 27.132812 25.273438 C 27.523438 24.878906 27.929688 24.507812 28.359375 24.15625 C 28.785156 23.804688 29.226562 23.476562 29.683594 23.167969 C 30.144531 22.859375 30.617188 22.574219 31.101562 22.3125 C 31.589844 22.050781 32.085938 21.816406 32.597656 21.601562 C 33.105469 21.390625 33.625 21.203125 34.152344 21.039062 C 34.679688 20.878906 35.214844 20.742188 35.757812 20.632812 C 36.296875 20.523438 36.84375 20.441406 37.394531 20.386719 C 37.941406 20.328125 38.492188 20.300781 39.046875 20.296875 L 284.683594 20.296875 C 285.238281 20.296875 285.789062 20.324219 286.339844 20.378906 C 286.890625 20.433594 287.4375 20.515625 287.980469 20.625 C 288.523438 20.730469 289.058594 20.867188 289.589844 21.027344 C 290.121094 21.1875 290.640625 21.375 291.152344 21.585938 C 291.664062 21.796875 292.164062 22.035156 292.652344 22.296875 C 293.140625 22.554688 293.613281 22.839844 294.074219 23.148438 C 294.535156 23.457031 294.976562 23.785156 295.40625 24.136719 C 295.832031 24.488281 296.242188 24.859375 296.632812 25.25 C 297.027344 25.640625 297.398438 26.050781 297.75 26.480469 C 298.097656 26.910156 298.429688 27.351562 298.738281 27.8125 C 299.042969 28.273438 299.328125 28.746094 299.589844 29.234375 C 299.851562 29.722656 300.085938 30.222656 300.296875 30.734375 C 300.511719 31.246094 300.695312 31.769531 300.855469 32.296875 C 301.019531 32.828125 301.152344 33.363281 301.261719 33.90625 C 301.367188 34.449219 301.449219 35 301.503906 35.550781 C 301.558594 36.101562 301.585938 36.652344 301.585938 37.207031 L 301.585938 91.277344 L 237.441406 91.277344 C 236.9375 89.132812 236.34375 87.015625 235.660156 84.921875 C 234.976562 82.828125 234.203125 80.769531 233.34375 78.742188 C 232.484375 76.710938 231.542969 74.726562 230.511719 72.777344 C 229.484375 70.832031 228.375 68.929688 227.183594 67.078125 C 225.996094 65.226562 224.726562 63.425781 223.386719 61.683594 C 222.042969 59.9375 220.628906 58.253906 219.140625 56.628906 C 217.65625 55.003906 216.101562 53.445312 214.484375 51.953125 C 212.867188 50.460938 211.1875 49.039062 209.445312 47.691406 C 207.707031 46.339844 205.914062 45.066406 204.066406 43.871094 C 202.21875 42.671875 200.324219 41.558594 198.378906 40.519531 C 196.4375 39.484375 194.453125 38.535156 192.429688 37.667969 C 190.40625 36.800781 188.351562 36.019531 186.261719 35.328125 C 184.171875 34.636719 182.054688 34.035156 179.914062 33.523438 C 177.773438 33.011719 175.613281 32.59375 173.4375 32.265625 C 171.261719 31.9375 169.074219 31.699219 166.875 31.558594 C 164.679688 31.417969 162.480469 31.367188 160.28125 31.414062 C 158.078125 31.457031 155.882812 31.597656 153.695312 31.828125 C 151.507812 32.058594 149.332031 32.382812 147.167969 32.800781 C 145.007812 33.21875 142.867188 33.726562 140.75 34.324219 C 138.632812 34.925781 136.542969 35.613281 134.480469 36.390625 C 132.421875 37.164062 130.398438 38.027344 128.414062 38.976562 C 126.425781 39.925781 124.484375 40.957031 122.585938 42.074219 C 120.6875 43.1875 118.839844 44.378906 117.039062 45.652344 C 115.242188 46.921875 113.503906 48.269531 111.820312 49.6875 C 110.136719 51.105469 108.519531 52.597656 106.960938 54.152344 C 105.40625 55.710938 103.917969 57.332031 102.5 59.015625 C 101.082031 60.699219 99.734375 62.441406 98.464844 64.238281 C 97.195312 66.039062 96.003906 67.886719 94.890625 69.785156 C 93.777344 71.6875 92.746094 73.628906 91.796875 75.617188 C 90.851562 77.605469 89.988281 79.628906 89.210938 81.691406 C 88.4375 83.75 87.75 85.839844 87.152344 87.960938 C 86.550781 90.078125 86.046875 92.21875 85.628906 94.382812 C 85.433594 95.429688 85.351562 96.484375 85.386719 97.550781 C 85.421875 98.613281 85.570312 99.660156 85.832031 100.695312 C 86.097656 101.726562 86.46875 102.71875 86.945312 103.667969 C 87.425781 104.617188 88.003906 105.507812 88.675781 106.332031 C 89.351562 107.15625 90.113281 107.898438 90.953125 108.554688 C 91.796875 109.210938 92.703125 109.765625 93.667969 110.21875 C 94.632812 110.671875 95.636719 111.015625 96.679688 111.246094 C 97.722656 111.480469 98.777344 111.59375 99.84375 111.589844 L 173.660156 111.589844 L 173.660156 271.230469 Z M 192.171875 91.277344 L 190.800781 91.277344 C 189.445312 89.457031 187.945312 87.765625 186.300781 86.203125 C 184.65625 84.640625 182.890625 83.230469 181.003906 81.972656 C 179.113281 80.714844 177.132812 79.628906 175.058594 78.714844 C 172.984375 77.796875 170.84375 77.066406 168.644531 76.519531 L 164.761719 60.925781 L 169.539062 63.195312 C 170.359375 63.546875 171.214844 63.726562 172.105469 63.734375 C 172.78125 63.730469 173.4375 63.613281 174.070312 63.390625 C 174.707031 63.164062 175.289062 62.839844 175.8125 62.414062 C 176.339844 61.992188 176.78125 61.496094 177.136719 60.921875 C 177.496094 60.351562 177.75 59.734375 177.898438 59.078125 C 178.046875 58.417969 178.082031 57.753906 178.007812 57.085938 C 177.929688 56.414062 177.746094 55.777344 177.453125 55.167969 C 177.160156 54.558594 176.777344 54.015625 176.300781 53.539062 C 175.824219 53.0625 175.28125 52.675781 174.675781 52.382812 L 158.550781 44.792969 C 158 44.511719 157.425781 44.3125 156.816406 44.195312 L 155.804688 44.195312 C 155.304688 44.132812 154.808594 44.132812 154.308594 44.195312 L 153.710938 44.195312 C 153.078125 44.4375 152.5 44.773438 151.980469 45.210938 C 151.519531 45.578125 151.140625 46.019531 150.847656 46.527344 L 141.171875 62.597656 C 141.019531 62.933594 140.902344 63.277344 140.8125 63.632812 C 140.726562 63.988281 140.671875 64.351562 140.652344 64.714844 C 140.628906 65.082031 140.640625 65.449219 140.6875 65.8125 C 140.734375 66.175781 140.8125 66.53125 140.925781 66.878906 C 141.039062 67.230469 141.179688 67.566406 141.351562 67.886719 C 141.527344 68.210938 141.730469 68.515625 141.957031 68.800781 C 142.1875 69.085938 142.441406 69.351562 142.71875 69.589844 C 142.996094 69.828125 143.292969 70.039062 143.613281 70.222656 C 143.929688 70.40625 144.257812 70.5625 144.605469 70.683594 C 144.949219 70.808594 145.304688 70.898438 145.664062 70.957031 C 146.027344 71.015625 146.390625 71.039062 146.757812 71.03125 C 147.125 71.023438 147.484375 70.980469 147.84375 70.90625 C 148.203125 70.828125 148.550781 70.722656 148.890625 70.582031 C 149.230469 70.441406 149.554688 70.273438 149.859375 70.074219 C 150.167969 69.875 150.453125 69.648438 150.722656 69.394531 C 150.988281 69.144531 151.226562 68.871094 151.441406 68.574219 L 153.652344 64.867188 L 156.042969 74.667969 C 154.183594 74.808594 152.339844 75.082031 150.519531 75.480469 C 148.695312 75.878906 146.910156 76.402344 145.160156 77.050781 C 143.410156 77.699219 141.714844 78.464844 140.074219 79.347656 C 138.429688 80.230469 136.855469 81.226562 135.351562 82.328125 C 133.847656 83.429688 132.425781 84.632812 131.089844 85.933594 C 129.753906 87.234375 128.511719 88.625 127.367188 90.097656 C 126.222656 91.570312 125.1875 93.117188 124.257812 94.734375 C 123.328125 96.355469 122.515625 98.027344 121.820312 99.761719 L 99.84375 99.761719 C 99.039062 99.785156 98.382812 99.488281 97.871094 98.863281 C 97.359375 98.207031 97.179688 97.472656 97.335938 96.652344 C 97.675781 94.847656 98.089844 93.054688 98.582031 91.285156 C 99.074219 89.511719 99.636719 87.761719 100.273438 86.039062 C 100.910156 84.3125 101.621094 82.617188 102.402344 80.953125 C 103.179688 79.285156 104.027344 77.65625 104.945312 76.0625 C 105.863281 74.46875 106.84375 72.914062 107.890625 71.402344 C 108.9375 69.890625 110.046875 68.425781 111.214844 67.007812 C 112.386719 65.589844 113.613281 64.222656 114.898438 62.90625 C 116.179688 61.589844 117.519531 60.332031 118.910156 59.128906 C 120.300781 57.925781 121.738281 56.78125 123.222656 55.699219 C 124.710938 54.617188 126.238281 53.597656 127.8125 52.644531 C 129.382812 51.691406 130.992188 50.804688 132.636719 49.984375 C 134.285156 49.164062 135.960938 48.417969 137.667969 47.738281 C 139.378906 47.0625 141.113281 46.457031 142.871094 45.921875 C 144.632812 45.390625 146.410156 44.933594 148.210938 44.550781 C 150.007812 44.167969 151.816406 43.859375 153.640625 43.628906 C 155.464844 43.398438 157.296875 43.242188 159.132812 43.167969 C 160.96875 43.089844 162.804688 43.089844 164.644531 43.167969 C 166.480469 43.242188 168.308594 43.398438 170.132812 43.628906 C 171.957031 43.859375 173.769531 44.164062 175.566406 44.546875 C 177.367188 44.929688 179.144531 45.390625 180.902344 45.921875 C 182.664062 46.453125 184.398438 47.058594 186.105469 47.734375 C 187.816406 48.414062 189.492188 49.164062 191.140625 49.980469 C 192.785156 50.800781 194.394531 51.6875 195.964844 52.640625 C 197.539062 53.59375 199.066406 54.613281 200.554688 55.695312 C 202.039062 56.777344 203.476562 57.917969 204.867188 59.121094 C 206.257812 60.324219 207.597656 61.585938 208.882812 62.902344 C 210.167969 64.214844 211.394531 65.582031 212.5625 67 C 213.734375 68.421875 214.84375 69.886719 215.890625 71.398438 C 216.9375 72.910156 217.917969 74.460938 218.835938 76.054688 C 219.753906 77.648438 220.601562 79.28125 221.378906 80.945312 C 222.160156 82.609375 222.871094 84.304688 223.507812 86.03125 C 224.144531 87.753906 224.710938 89.503906 225.199219 91.277344 Z M 159.027344 87.214844 L 162.132812 99.761719 L 135.199219 99.761719 C 136.484375 97.820312 137.992188 96.066406 139.714844 94.503906 C 141.4375 92.9375 143.324219 91.609375 145.378906 90.511719 C 147.433594 89.417969 149.589844 88.589844 151.847656 88.03125 C 154.109375 87.472656 156.402344 87.203125 158.730469 87.214844 Z M 176.644531 99.761719 L 174.4375 99.761719 L 172.167969 90.617188 C 174.964844 92.179688 177.414062 94.171875 179.511719 96.59375 C 178.398438 97.503906 177.441406 98.558594 176.644531 99.761719 Z M 352.828125 348.300781 C 352.828125 348.734375 352.785156 349.160156 352.699219 349.582031 C 352.617188 350.007812 352.492188 350.417969 352.328125 350.816406 C 352.160156 351.214844 351.960938 351.59375 351.71875 351.953125 C 351.480469 352.3125 351.207031 352.644531 350.902344 352.949219 C 350.597656 353.253906 350.265625 353.527344 349.90625 353.765625 C 349.546875 354.003906 349.167969 354.207031 348.769531 354.371094 C 348.371094 354.539062 347.960938 354.664062 347.539062 354.746094 C 347.117188 354.832031 346.6875 354.871094 346.257812 354.871094 L 192.171875 354.871094 C 191.742188 354.871094 191.316406 354.832031 190.890625 354.746094 C 190.46875 354.664062 190.058594 354.539062 189.660156 354.371094 C 189.261719 354.207031 188.882812 354.003906 188.523438 353.765625 C 188.164062 353.527344 187.832031 353.253906 187.527344 352.949219 C 187.222656 352.644531 186.949219 352.3125 186.710938 351.953125 C 186.472656 351.59375 186.269531 351.214844 186.105469 350.816406 C 185.9375 350.417969 185.816406 350.007812 185.730469 349.582031 C 185.644531 349.160156 185.605469 348.734375 185.605469 348.300781 L 185.605469 109.917969 C 185.511719 109.339844 185.511719 108.761719 185.605469 108.183594 C 185.667969 107.910156 185.765625 107.652344 185.902344 107.40625 C 186.269531 106.492188 186.824219 105.714844 187.574219 105.078125 C 188.167969 104.527344 188.839844 104.109375 189.59375 103.820312 C 190.347656 103.53125 191.128906 103.390625 191.933594 103.40625 L 346.019531 103.40625 C 346.449219 103.40625 346.875 103.445312 347.300781 103.53125 C 347.722656 103.613281 348.132812 103.738281 348.53125 103.90625 C 348.929688 104.070312 349.308594 104.273438 349.667969 104.511719 C 350.027344 104.75 350.359375 105.023438 350.664062 105.328125 C 350.96875 105.632812 351.242188 105.964844 351.480469 106.324219 C 351.71875 106.683594 351.921875 107.0625 352.085938 107.460938 C 352.253906 107.859375 352.378906 108.269531 352.460938 108.695312 C 352.546875 109.117188 352.585938 109.542969 352.585938 109.976562 Z M 352.828125 348.300781 " fill-opacity="1" fill-rule="nonzero"/></g><path fill="#3a0e33" d="M 324.875 115.890625 L 213.316406 115.890625 C 212.28125 115.890625 211.253906 115.992188 210.238281 116.195312 C 209.222656 116.394531 208.238281 116.695312 207.28125 117.09375 C 206.324219 117.488281 205.417969 117.972656 204.554688 118.550781 C 203.695312 119.125 202.898438 119.777344 202.167969 120.511719 C 201.433594 121.242188 200.78125 122.039062 200.207031 122.902344 C 199.628906 123.761719 199.144531 124.671875 198.75 125.628906 C 198.351562 126.585938 198.054688 127.570312 197.851562 128.585938 C 197.648438 129.601562 197.546875 130.628906 197.546875 131.664062 L 197.546875 189.738281 C 197.546875 190.773438 197.648438 191.796875 197.851562 192.8125 C 198.054688 193.828125 198.351562 194.816406 198.75 195.773438 C 199.144531 196.730469 199.628906 197.636719 200.207031 198.5 C 200.78125 199.359375 201.433594 200.15625 202.167969 200.890625 C 202.898438 201.621094 203.695312 202.277344 204.554688 202.851562 C 205.417969 203.425781 206.324219 203.914062 207.28125 204.308594 C 208.238281 204.703125 209.222656 205.003906 210.238281 205.207031 C 211.253906 205.410156 212.28125 205.507812 213.316406 205.507812 L 324.875 205.507812 C 325.910156 205.507812 326.9375 205.410156 327.953125 205.207031 C 328.96875 205.003906 329.953125 204.703125 330.910156 204.308594 C 331.867188 203.914062 332.773438 203.425781 333.636719 202.851562 C 334.496094 202.277344 335.292969 201.621094 336.023438 200.890625 C 336.757812 200.15625 337.410156 199.359375 337.984375 198.5 C 338.5625 197.636719 339.046875 196.730469 339.441406 195.773438 C 339.839844 194.816406 340.136719 193.828125 340.339844 192.8125 C 340.542969 191.796875 340.644531 190.773438 340.644531 189.738281 L 340.644531 131.664062 C 340.644531 130.628906 340.542969 129.601562 340.339844 128.585938 C 340.136719 127.570312 339.839844 126.585938 339.441406 125.628906 C 339.046875 124.671875 338.5625 123.761719 337.984375 122.902344 C 337.410156 122.039062 336.757812 121.242188 336.023438 120.511719 C 335.292969 119.777344 334.496094 119.125 333.636719 118.550781 C 332.773438 117.972656 331.867188 117.488281 330.910156 117.09375 C 329.953125 116.695312 328.96875 116.394531 327.953125 116.195312 C 326.9375 115.992188 325.910156 115.890625 324.875 115.890625 Z M 328.699219 189.738281 C 328.699219 190.242188 328.601562 190.730469 328.40625 191.199219 C 328.214844 191.667969 327.9375 192.082031 327.578125 192.441406 C 327.222656 192.800781 326.808594 193.074219 326.339844 193.269531 C 325.871094 193.464844 325.382812 193.558594 324.875 193.558594 L 213.316406 193.558594 C 212.808594 193.558594 212.320312 193.464844 211.851562 193.269531 C 211.382812 193.074219 210.972656 192.800781 210.613281 192.441406 C 210.253906 192.082031 209.976562 191.667969 209.785156 191.199219 C 209.589844 190.730469 209.492188 190.242188 209.492188 189.738281 L 209.492188 131.664062 C 209.492188 131.15625 209.589844 130.667969 209.785156 130.199219 C 209.976562 129.730469 210.253906 129.320312 210.613281 128.960938 C 210.972656 128.601562 211.382812 128.324219 211.851562 128.132812 C 212.320312 127.9375 212.808594 127.839844 213.316406 127.839844 L 324.875 127.839844 C 325.382812 127.839844 325.871094 127.9375 326.339844 128.132812 C 326.808594 128.324219 327.222656 128.601562 327.578125 128.960938 C 327.9375 129.320312 328.214844 129.730469 328.40625 130.199219 C 328.601562 130.667969 328.699219 131.15625 328.699219 131.664062 Z M 328.699219 189.738281 " fill-opacity="1" fill-rule="nonzero"/><path fill="#3a0e33" d="M 236.367188 211.484375 L 206.507812 211.484375 C 206.113281 211.484375 205.726562 211.523438 205.34375 211.597656 C 204.957031 211.675781 204.582031 211.789062 204.222656 211.9375 C 203.859375 212.089844 203.515625 212.273438 203.1875 212.492188 C 202.863281 212.707031 202.5625 212.957031 202.285156 213.234375 C 202.007812 213.511719 201.757812 213.8125 201.542969 214.140625 C 201.324219 214.464844 201.140625 214.808594 200.988281 215.171875 C 200.839844 215.535156 200.726562 215.90625 200.648438 216.292969 C 200.574219 216.675781 200.535156 217.066406 200.535156 217.457031 L 200.535156 247.332031 C 200.535156 247.722656 200.574219 248.113281 200.648438 248.496094 C 200.726562 248.882812 200.839844 249.253906 200.988281 249.617188 C 201.140625 249.980469 201.324219 250.324219 201.542969 250.648438 C 201.757812 250.976562 202.007812 251.277344 202.285156 251.554688 C 202.5625 251.832031 202.863281 252.082031 203.1875 252.296875 C 203.515625 252.515625 203.859375 252.699219 204.222656 252.851562 C 204.582031 253 204.957031 253.113281 205.34375 253.191406 C 205.726562 253.265625 206.113281 253.304688 206.507812 253.304688 L 236.367188 253.304688 C 236.761719 253.304688 237.148438 253.265625 237.535156 253.191406 C 237.917969 253.113281 238.292969 253 238.652344 252.851562 C 239.015625 252.699219 239.359375 252.515625 239.6875 252.296875 C 240.011719 252.082031 240.3125 251.832031 240.589844 251.554688 C 240.867188 251.277344 241.117188 250.976562 241.332031 250.648438 C 241.550781 250.324219 241.734375 249.980469 241.886719 249.617188 C 242.035156 249.253906 242.148438 248.882812 242.226562 248.496094 C 242.300781 248.113281 242.339844 247.722656 242.339844 247.332031 L 242.339844 217.457031 C 242.339844 217.066406 242.300781 216.675781 242.226562 216.292969 C 242.148438 215.90625 242.035156 215.535156 241.886719 215.171875 C 241.734375 214.808594 241.550781 214.464844 241.332031 214.140625 C 241.117188 213.8125 240.867188 213.511719 240.589844 213.234375 C 240.3125 212.957031 240.011719 212.707031 239.6875 212.492188 C 239.359375 212.273438 239.015625 212.089844 238.652344 211.9375 C 238.292969 211.789062 237.917969 211.675781 237.535156 211.597656 C 237.148438 211.523438 236.761719 211.484375 236.367188 211.484375 Z M 230.394531 241.355469 L 212.480469 241.355469 L 212.480469 223.433594 L 230.394531 223.433594 Z M 230.394531 241.355469 " fill-opacity="1" fill-rule="nonzero"/><path fill="#3a0e33" d="M 284.144531 211.484375 L 254.285156 211.484375 C 253.894531 211.484375 253.503906 211.523438 253.121094 211.597656 C 252.734375 211.675781 252.363281 211.789062 252 211.9375 C 251.636719 212.089844 251.292969 212.273438 250.96875 212.492188 C 250.640625 212.707031 250.339844 212.957031 250.0625 213.234375 C 249.785156 213.511719 249.535156 213.8125 249.320312 214.140625 C 249.101562 214.464844 248.917969 214.808594 248.765625 215.171875 C 248.617188 215.535156 248.503906 215.90625 248.425781 216.292969 C 248.351562 216.675781 248.3125 217.066406 248.3125 217.457031 L 248.3125 247.332031 C 248.3125 247.722656 248.351562 248.113281 248.425781 248.496094 C 248.503906 248.882812 248.617188 249.253906 248.765625 249.617188 C 248.917969 249.980469 249.101562 250.324219 249.320312 250.648438 C 249.535156 250.976562 249.785156 251.277344 250.0625 251.554688 C 250.339844 251.832031 250.640625 252.082031 250.96875 252.296875 C 251.292969 252.515625 251.636719 252.699219 252 252.851562 C 252.363281 253 252.734375 253.113281 253.121094 253.191406 C 253.503906 253.265625 253.894531 253.304688 254.285156 253.304688 L 284.144531 253.304688 C 284.539062 253.304688 284.925781 253.265625 285.3125 253.191406 C 285.695312 253.113281 286.070312 253 286.429688 252.851562 C 286.792969 252.699219 287.136719 252.515625 287.464844 252.296875 C 287.789062 252.082031 288.089844 251.832031 288.367188 251.554688 C 288.644531 251.277344 288.894531 250.976562 289.113281 250.648438 C 289.328125 250.324219 289.511719 249.980469 289.664062 249.617188 C 289.8125 249.253906 289.925781 248.882812 290.003906 248.496094 C 290.078125 248.113281 290.117188 247.722656 290.117188 247.332031 L 290.117188 217.457031 C 290.117188 217.066406 290.078125 216.675781 290.003906 216.292969 C 289.925781 215.90625 289.8125 215.535156 289.664062 215.171875 C 289.511719 214.808594 289.328125 214.464844 289.113281 214.140625 C 288.894531 213.8125 288.644531 213.511719 288.367188 213.234375 C 288.089844 212.957031 287.789062 212.707031 287.464844 212.492188 C 287.136719 212.273438 286.792969 212.089844 286.429688 211.9375 C 286.070312 211.789062 285.695312 211.675781 285.3125 211.597656 C 284.925781 211.523438 284.539062 211.484375 284.144531 211.484375 Z M 278.171875 241.355469 L 260.257812 241.355469 L 260.257812 223.433594 L 278.171875 223.433594 Z M 278.171875 241.355469 " fill-opacity="1" fill-rule="nonzero"/><path fill="#3a0e33" d="M 331.921875 211.484375 L 302.0625 211.484375 C 301.671875 211.484375 301.28125 211.523438 300.898438 211.597656 C 300.511719 211.675781 300.140625 211.789062 299.777344 211.9375 C 299.414062 212.089844 299.070312 212.273438 298.746094 212.492188 C 298.417969 212.707031 298.117188 212.957031 297.839844 213.234375 C 297.5625 213.511719 297.316406 213.8125 297.097656 214.140625 C 296.878906 214.464844 296.695312 214.808594 296.546875 215.171875 C 296.394531 215.535156 296.28125 215.90625 296.207031 216.292969 C 296.128906 216.675781 296.089844 217.066406 296.089844 217.457031 L 296.089844 247.332031 C 296.089844 247.722656 296.128906 248.113281 296.207031 248.496094 C 296.28125 248.882812 296.394531 249.253906 296.546875 249.617188 C 296.695312 249.980469 296.878906 250.324219 297.097656 250.648438 C 297.316406 250.976562 297.5625 251.277344 297.839844 251.554688 C 298.117188 251.832031 298.417969 252.082031 298.746094 252.296875 C 299.070312 252.515625 299.414062 252.699219 299.777344 252.851562 C 300.140625 253 300.511719 253.113281 300.898438 253.191406 C 301.28125 253.265625 301.671875 253.304688 302.0625 253.304688 L 331.921875 253.304688 C 332.316406 253.304688 332.703125 253.265625 333.089844 253.191406 C 333.472656 253.113281 333.847656 253 334.210938 252.851562 C 334.570312 252.699219 334.914062 252.515625 335.242188 252.296875 C 335.566406 252.082031 335.871094 251.832031 336.148438 251.554688 C 336.425781 251.277344 336.671875 250.976562 336.890625 250.648438 C 337.105469 250.324219 337.292969 249.980469 337.441406 249.617188 C 337.589844 249.253906 337.703125 248.882812 337.78125 248.496094 C 337.859375 248.113281 337.894531 247.722656 337.894531 247.332031 L 337.894531 217.457031 C 337.894531 217.066406 337.859375 216.675781 337.78125 216.292969 C 337.703125 215.90625 337.589844 215.535156 337.441406 215.171875 C 337.292969 214.808594 337.105469 214.464844 336.890625 214.140625 C 336.671875 213.8125 336.425781 213.511719 336.148438 213.234375 C 335.871094 212.957031 335.566406 212.707031 335.242188 212.492188 C 334.914062 212.273438 334.570312 212.089844 334.210938 211.9375 C 333.847656 211.789062 333.472656 211.675781 333.089844 211.597656 C 332.703125 211.523438 332.316406 211.484375 331.921875 211.484375 Z M 325.953125 241.355469 L 308.035156 241.355469 L 308.035156 223.433594 L 325.953125 223.433594 Z M 325.953125 241.355469 " fill-opacity="1" fill-rule="nonzero"/><path fill="#3a0e33" d="M 236.367188 259.28125 L 206.507812 259.28125 C 206.113281 259.28125 205.726562 259.320312 205.34375 259.394531 C 204.957031 259.472656 204.582031 259.585938 204.222656 259.734375 C 203.859375 259.886719 203.515625 260.070312 203.1875 260.289062 C 202.863281 260.503906 202.5625 260.753906 202.285156 261.03125 C 202.007812 261.308594 201.757812 261.609375 201.542969 261.933594 C 201.324219 262.261719 201.140625 262.605469 200.988281 262.96875 C 200.839844 263.332031 200.726562 263.703125 200.648438 264.089844 C 200.574219 264.472656 200.535156 264.863281 200.535156 265.253906 L 200.535156 295.128906 C 200.535156 295.519531 200.574219 295.910156 200.648438 296.292969 C 200.726562 296.679688 200.839844 297.050781 200.988281 297.414062 C 201.140625 297.777344 201.324219 298.121094 201.542969 298.445312 C 201.757812 298.773438 202.007812 299.074219 202.285156 299.351562 C 202.5625 299.628906 202.863281 299.878906 203.1875 300.09375 C 203.515625 300.3125 203.859375 300.496094 204.222656 300.648438 C 204.582031 300.796875 204.957031 300.910156 205.34375 300.988281 C 205.726562 301.0625 206.113281 301.101562 206.507812 301.101562 L 236.367188 301.101562 C 236.761719 301.101562 237.148438 301.0625 237.535156 300.988281 C 237.917969 300.910156 238.292969 300.796875 238.652344 300.648438 C 239.015625 300.496094 239.359375 300.3125 239.6875 300.09375 C 240.011719 299.878906 240.3125 299.628906 240.589844 299.351562 C 240.867188 299.074219 241.117188 298.773438 241.332031 298.445312 C 241.550781 298.121094 241.734375 297.777344 241.886719 297.414062 C 242.035156 297.050781 242.148438 296.679688 242.226562 296.292969 C 242.300781 295.910156 242.339844 295.519531 242.339844 295.128906 L 242.339844 265.253906 C 242.339844 264.863281 242.300781 264.472656 242.226562 264.089844 C 242.148438 263.703125 242.035156 263.332031 241.886719 262.96875 C 241.734375 262.605469 241.550781 262.261719 241.332031 261.933594 C 241.117188 261.609375 240.867188 261.308594 240.589844 261.03125 C 240.3125 260.753906 240.011719 260.503906 239.6875 260.289062 C 239.359375 260.070312 239.015625 259.886719 238.652344 259.734375 C 238.292969 259.585938 237.917969 259.472656 237.535156 259.394531 C 237.148438 259.320312 236.761719 259.28125 236.367188 259.28125 Z M 230.394531 289.152344 L 212.480469 289.152344 L 212.480469 271.230469 L 230.394531 271.230469 Z M 230.394531 289.152344 " fill-opacity="1" fill-rule="nonzero"/><path fill="#3a0e33" d="M 284.144531 259.28125 L 254.285156 259.28125 C 253.894531 259.28125 253.503906 259.320312 253.121094 259.394531 C 252.734375 259.472656 252.363281 259.585938 252 259.734375 C 251.636719 259.886719 251.292969 260.070312 250.96875 260.289062 C 250.640625 260.503906 250.339844 260.753906 250.0625 261.03125 C 249.785156 261.308594 249.535156 261.609375 249.320312 261.933594 C 249.101562 262.261719 248.917969 262.605469 248.765625 262.96875 C 248.617188 263.332031 248.503906 263.703125 248.425781 264.089844 C 248.351562 264.472656 248.3125 264.863281 248.3125 265.253906 L 248.3125 295.128906 C 248.3125 295.519531 248.351562 295.910156 248.425781 296.292969 C 248.503906 296.679688 248.617188 297.050781 248.765625 297.414062 C 248.917969 297.777344 249.101562 298.121094 249.320312 298.445312 C 249.535156 298.773438 249.785156 299.074219 250.0625 299.351562 C 250.339844 299.628906 250.640625 299.878906 250.96875 300.09375 C 251.292969 300.3125 251.636719 300.496094 252 300.648438 C 252.363281 300.796875 252.734375 300.910156 253.121094 300.988281 C 253.503906 301.0625 253.894531 301.101562 254.285156 301.101562 L 284.144531 301.101562 C 284.539062 301.101562 284.925781 301.0625 285.3125 300.988281 C 285.695312 300.910156 286.070312 300.796875 286.429688 300.648438 C 286.792969 300.496094 287.136719 300.3125 287.464844 300.09375 C 287.789062 299.878906 288.089844 299.628906 288.367188 299.351562 C 288.644531 299.074219 288.894531 298.773438 289.113281 298.445312 C 289.328125 298.121094 289.511719 297.777344 289.664062 297.414062 C 289.8125 297.050781 289.925781 296.679688 290.003906 296.292969 C 290.078125 295.910156 290.117188 295.519531 290.117188 295.128906 L 290.117188 265.253906 C 290.117188 264.863281 290.078125 264.472656 290.003906 264.089844 C 289.925781 263.703125 289.8125 263.332031 289.664062 262.96875 C 289.511719 262.605469 289.328125 262.261719 289.113281 261.933594 C 288.894531 261.609375 288.644531 261.308594 288.367188 261.03125 C 288.089844 260.753906 287.789062 260.503906 287.464844 260.289062 C 287.136719 260.070312 286.792969 259.886719 286.429688 259.734375 C 286.070312 259.585938 285.695312 259.472656 285.3125 259.394531 C 284.925781 259.320312 284.539062 259.28125 284.144531 259.28125 Z M 278.171875 289.152344 L 260.257812 289.152344 L 260.257812 271.230469 L 278.171875 271.230469 Z M 278.171875 289.152344 " fill-opacity="1" fill-rule="nonzero"/><path fill="#3a0e33" d="M 331.921875 259.28125 L 302.0625 259.28125 C 301.671875 259.28125 301.28125 259.320312 300.898438 259.394531 C 300.511719 259.472656 300.140625 259.585938 299.777344 259.734375 C 299.414062 259.886719 299.070312 260.070312 298.746094 260.289062 C 298.417969 260.503906 298.117188 260.753906 297.839844 261.03125 C 297.5625 261.308594 297.316406 261.609375 297.097656 261.933594 C 296.878906 262.261719 296.695312 262.605469 296.546875 262.96875 C 296.394531 263.332031 296.28125 263.703125 296.207031 264.089844 C 296.128906 264.472656 296.089844 264.863281 296.089844 265.253906 L 296.089844 295.128906 C 296.089844 295.519531 296.128906 295.910156 296.207031 296.292969 C 296.28125 296.679688 296.394531 297.050781 296.546875 297.414062 C 296.695312 297.777344 296.878906 298.121094 297.097656 298.445312 C 297.316406 298.773438 297.5625 299.074219 297.839844 299.351562 C 298.117188 299.628906 298.417969 299.878906 298.746094 300.09375 C 299.070312 300.3125 299.414062 300.496094 299.777344 300.648438 C 300.140625 300.796875 300.511719 300.910156 300.898438 300.988281 C 301.28125 301.0625 301.671875 301.101562 302.0625 301.101562 L 331.921875 301.101562 C 332.316406 301.101562 332.703125 301.0625 333.089844 300.988281 C 333.472656 300.910156 333.847656 300.796875 334.210938 300.648438 C 334.570312 300.496094 334.914062 300.3125 335.242188 300.09375 C 335.566406 299.878906 335.871094 299.628906 336.148438 299.351562 C 336.425781 299.074219 336.671875 298.773438 336.890625 298.445312 C 337.105469 298.121094 337.292969 297.777344 337.441406 297.414062 C 337.589844 297.050781 337.703125 296.679688 337.78125 296.292969 C 337.859375 295.910156 337.894531 295.519531 337.894531 295.128906 L 337.894531 265.253906 C 337.894531 264.863281 337.859375 264.472656 337.78125 264.089844 C 337.703125 263.703125 337.589844 263.332031 337.441406 262.96875 C 337.292969 262.605469 337.105469 262.261719 336.890625 261.933594 C 336.671875 261.609375 336.425781 261.308594 336.148438 261.03125 C 335.871094 260.753906 335.566406 260.503906 335.242188 260.289062 C 334.914062 260.070312 334.570312 259.886719 334.210938 259.734375 C 333.847656 259.585938 333.472656 259.472656 333.089844 259.394531 C 332.703125 259.320312 332.316406 259.28125 331.921875 259.28125 Z M 325.953125 289.152344 L 308.035156 289.152344 L 308.035156 271.230469 L 325.953125 271.230469 Z M 325.953125 289.152344 " fill-opacity="1" fill-rule="nonzero"/><path fill="#3a0e33" d="M 236.367188 307.078125 L 206.507812 307.078125 C 206.113281 307.078125 205.726562 307.113281 205.34375 307.191406 C 204.957031 307.269531 204.582031 307.382812 204.222656 307.53125 C 203.859375 307.679688 203.515625 307.867188 203.1875 308.082031 C 202.863281 308.300781 202.5625 308.550781 202.285156 308.828125 C 202.007812 309.105469 201.757812 309.40625 201.542969 309.730469 C 201.324219 310.058594 201.140625 310.402344 200.988281 310.765625 C 200.839844 311.128906 200.726562 311.5 200.648438 311.886719 C 200.574219 312.269531 200.535156 312.660156 200.535156 313.050781 L 200.535156 342.921875 C 200.535156 343.316406 200.574219 343.703125 200.648438 344.089844 C 200.726562 344.472656 200.839844 344.847656 200.988281 345.210938 C 201.140625 345.574219 201.324219 345.917969 201.542969 346.242188 C 201.757812 346.570312 202.007812 346.871094 202.285156 347.148438 C 202.5625 347.425781 202.863281 347.671875 203.1875 347.890625 C 203.515625 348.109375 203.859375 348.292969 204.222656 348.445312 C 204.582031 348.59375 204.957031 348.707031 205.34375 348.785156 C 205.726562 348.859375 206.113281 348.898438 206.507812 348.898438 L 236.367188 348.898438 C 236.761719 348.898438 237.148438 348.859375 237.535156 348.785156 C 237.917969 348.707031 238.292969 348.59375 238.652344 348.445312 C 239.015625 348.292969 239.359375 348.109375 239.6875 347.890625 C 240.011719 347.671875 240.3125 347.425781 240.589844 347.148438 C 240.867188 346.871094 241.117188 346.570312 241.332031 346.242188 C 241.550781 345.917969 241.734375 345.574219 241.886719 345.210938 C 242.035156 344.847656 242.148438 344.472656 242.226562 344.089844 C 242.300781 343.703125 242.339844 343.316406 242.339844 342.921875 L 242.339844 313.050781 C 242.339844 312.660156 242.300781 312.269531 242.226562 311.886719 C 242.148438 311.5 242.035156 311.128906 241.886719 310.765625 C 241.734375 310.402344 241.550781 310.058594 241.332031 309.730469 C 241.117188 309.40625 240.867188 309.105469 240.589844 308.828125 C 240.3125 308.550781 240.011719 308.300781 239.6875 308.082031 C 239.359375 307.867188 239.015625 307.679688 238.652344 307.53125 C 238.292969 307.382812 237.917969 307.269531 237.535156 307.191406 C 237.148438 307.113281 236.761719 307.078125 236.367188 307.078125 Z M 230.394531 336.949219 L 212.480469 336.949219 L 212.480469 319.027344 L 230.394531 319.027344 Z M 230.394531 336.949219 " fill-opacity="1" fill-rule="nonzero"/><path fill="#3a0e33" d="M 284.144531 307.078125 L 254.285156 307.078125 C 253.894531 307.078125 253.503906 307.113281 253.121094 307.191406 C 252.734375 307.269531 252.363281 307.382812 252 307.53125 C 251.636719 307.679688 251.292969 307.867188 250.96875 308.082031 C 250.640625 308.300781 250.339844 308.550781 250.0625 308.828125 C 249.785156 309.105469 249.535156 309.40625 249.320312 309.730469 C 249.101562 310.058594 248.917969 310.402344 248.765625 310.765625 C 248.617188 311.128906 248.503906 311.5 248.425781 311.886719 C 248.351562 312.269531 248.3125 312.660156 248.3125 313.050781 L 248.3125 342.921875 C 248.3125 343.316406 248.351562 343.703125 248.425781 344.089844 C 248.503906 344.472656 248.617188 344.847656 248.765625 345.210938 C 248.917969 345.574219 249.101562 345.917969 249.320312 346.242188 C 249.535156 346.570312 249.785156 346.871094 250.0625 347.148438 C 250.339844 347.425781 250.640625 347.671875 250.96875 347.890625 C 251.292969 348.109375 251.636719 348.292969 252 348.445312 C 252.363281 348.59375 252.734375 348.707031 253.121094 348.785156 C 253.503906 348.859375 253.894531 348.898438 254.285156 348.898438 L 284.144531 348.898438 C 284.539062 348.898438 284.925781 348.859375 285.3125 348.785156 C 285.695312 348.707031 286.070312 348.59375 286.429688 348.445312 C 286.792969 348.292969 287.136719 348.109375 287.464844 347.890625 C 287.789062 347.671875 288.089844 347.425781 288.367188 347.148438 C 288.644531 346.871094 288.894531 346.570312 289.113281 346.242188 C 289.328125 345.917969 289.511719 345.574219 289.664062 345.210938 C 289.8125 344.847656 289.925781 344.472656 290.003906 344.089844 C 290.078125 343.703125 290.117188 343.316406 290.117188 342.921875 L 290.117188 313.050781 C 290.117188 312.660156 290.078125 312.269531 290.003906 311.886719 C 289.925781 311.5 289.8125 311.128906 289.664062 310.765625 C 289.511719 310.402344 289.328125 310.058594 289.113281 309.730469 C 288.894531 309.40625 288.644531 309.105469 288.367188 308.828125 C 288.089844 308.550781 287.789062 308.300781 287.464844 308.082031 C 287.136719 307.867188 286.792969 307.679688 286.429688 307.53125 C 286.070312 307.382812 285.695312 307.269531 285.3125 307.191406 C 284.925781 307.113281 284.539062 307.078125 284.144531 307.078125 Z M 278.171875 336.949219 L 260.257812 336.949219 L 260.257812 319.027344 L 278.171875 319.027344 Z M 278.171875 336.949219 " fill-opacity="1" fill-rule="nonzero"/><path fill="#3a0e33" d="M 331.921875 307.078125 L 302.0625 307.078125 C 301.671875 307.078125 301.28125 307.113281 300.898438 307.191406 C 300.511719 307.269531 300.140625 307.382812 299.777344 307.53125 C 299.414062 307.679688 299.070312 307.867188 298.746094 308.082031 C 298.417969 308.300781 298.117188 308.550781 297.839844 308.828125 C 297.5625 309.105469 297.316406 309.40625 297.097656 309.730469 C 296.878906 310.058594 296.695312 310.402344 296.546875 310.765625 C 296.394531 311.128906 296.28125 311.5 296.207031 311.886719 C 296.128906 312.269531 296.089844 312.660156 296.089844 313.050781 L 296.089844 342.921875 C 296.089844 343.316406 296.128906 343.703125 296.207031 344.089844 C 296.28125 344.472656 296.394531 344.847656 296.546875 345.210938 C 296.695312 345.574219 296.878906 345.917969 297.097656 346.242188 C 297.316406 346.570312 297.5625 346.871094 297.839844 347.148438 C 298.117188 347.425781 298.417969 347.671875 298.746094 347.890625 C 299.070312 348.109375 299.414062 348.292969 299.777344 348.445312 C 300.140625 348.59375 300.511719 348.707031 300.898438 348.785156 C 301.28125 348.859375 301.671875 348.898438 302.0625 348.898438 L 331.921875 348.898438 C 332.316406 348.898438 332.703125 348.859375 333.089844 348.785156 C 333.472656 348.707031 333.847656 348.59375 334.210938 348.445312 C 334.570312 348.292969 334.914062 348.109375 335.242188 347.890625 C 335.566406 347.671875 335.871094 347.425781 336.148438 347.148438 C 336.425781 346.871094 336.671875 346.570312 336.890625 346.242188 C 337.105469 345.917969 337.292969 345.574219 337.441406 345.210938 C 337.589844 344.847656 337.703125 344.472656 337.78125 344.089844 C 337.859375 343.703125 337.894531 343.316406 337.894531 342.921875 L 337.894531 313.050781 C 337.894531 312.660156 337.859375 312.269531 337.78125 311.886719 C 337.703125 311.5 337.589844 311.128906 337.441406 310.765625 C 337.292969 310.402344 337.105469 310.058594 336.890625 309.730469 C 336.671875 309.40625 336.425781 309.105469 336.148438 308.828125 C 335.871094 308.550781 335.566406 308.300781 335.242188 308.082031 C 334.914062 307.867188 334.570312 307.679688 334.210938 307.53125 C 333.847656 307.382812 333.472656 307.269531 333.089844 307.191406 C 332.703125 307.113281 332.316406 307.078125 331.921875 307.078125 Z M 325.953125 336.949219 L 308.035156 336.949219 L 308.035156 319.027344 L 325.953125 319.027344 Z M 325.953125 336.949219 " fill-opacity="1" fill-rule="nonzero"/><path fill="#3a0e33" d="M 234.875 133.816406 L 222.929688 133.816406 C 222.539062 133.816406 222.148438 133.851562 221.765625 133.929688 C 221.382812 134.007812 221.007812 134.121094 220.644531 134.269531 C 220.28125 134.417969 219.9375 134.605469 219.613281 134.820312 C 219.285156 135.039062 218.984375 135.289062 218.707031 135.566406 C 218.429688 135.84375 218.183594 136.144531 217.964844 136.46875 C 217.746094 136.796875 217.5625 137.140625 217.414062 137.503906 C 217.261719 137.867188 217.148438 138.238281 217.074219 138.625 C 216.996094 139.007812 216.957031 139.398438 216.957031 139.789062 L 216.957031 181.609375 C 216.957031 182.003906 216.996094 182.390625 217.074219 182.777344 C 217.148438 183.160156 217.261719 183.535156 217.414062 183.898438 C 217.5625 184.261719 217.746094 184.605469 217.964844 184.929688 C 218.183594 185.257812 218.429688 185.558594 218.707031 185.835938 C 218.984375 186.113281 219.285156 186.359375 219.613281 186.578125 C 219.9375 186.796875 220.28125 186.980469 220.644531 187.132812 C 221.007812 187.28125 221.382812 187.394531 221.765625 187.472656 C 222.148438 187.546875 222.539062 187.585938 222.929688 187.585938 L 234.875 187.585938 C 235.855469 187.585938 236.828125 187.488281 237.789062 187.296875 C 238.75 187.105469 239.683594 186.824219 240.589844 186.449219 C 241.496094 186.074219 242.355469 185.613281 243.171875 185.070312 C 243.984375 184.523438 244.738281 183.90625 245.433594 183.210938 C 246.125 182.515625 246.746094 181.761719 247.289062 180.949219 C 247.835938 180.132812 248.292969 179.269531 248.667969 178.367188 C 249.042969 177.460938 249.328125 176.523438 249.519531 175.5625 C 249.710938 174.601562 249.804688 173.628906 249.804688 172.648438 L 249.804688 169.660156 C 249.804688 168.046875 249.550781 166.472656 249.039062 164.9375 C 248.527344 163.40625 247.789062 161.992188 246.820312 160.699219 C 247.789062 159.40625 248.527344 157.996094 249.039062 156.460938 C 249.550781 154.929688 249.804688 153.355469 249.804688 151.738281 L 249.804688 148.75 C 249.804688 147.769531 249.710938 146.800781 249.519531 145.835938 C 249.328125 144.875 249.042969 143.941406 248.667969 143.035156 C 248.292969 142.128906 247.835938 141.269531 247.289062 140.453125 C 246.746094 139.636719 246.125 138.882812 245.433594 138.191406 C 244.738281 137.496094 243.984375 136.875 243.171875 136.332031 C 242.355469 135.789062 241.496094 135.328125 240.589844 134.953125 C 239.683594 134.578125 238.75 134.292969 237.789062 134.101562 C 236.828125 133.910156 235.855469 133.816406 234.875 133.816406 Z M 228.902344 145.765625 L 234.875 145.765625 C 235.269531 145.765625 235.652344 145.839844 236.019531 145.992188 C 236.382812 146.144531 236.707031 146.359375 236.988281 146.640625 C 237.265625 146.917969 237.480469 147.242188 237.632812 147.609375 C 237.785156 147.972656 237.859375 148.355469 237.859375 148.75 L 237.859375 151.738281 C 237.859375 152.132812 237.785156 152.515625 237.632812 152.882812 C 237.480469 153.246094 237.265625 153.570312 236.988281 153.851562 C 236.707031 154.132812 236.382812 154.347656 236.019531 154.5 C 235.652344 154.648438 235.269531 154.726562 234.875 154.726562 L 228.902344 154.726562 Z M 237.859375 172.648438 C 237.859375 173.046875 237.785156 173.425781 237.632812 173.792969 C 237.480469 174.160156 237.265625 174.480469 236.988281 174.761719 C 236.707031 175.042969 236.382812 175.257812 236.019531 175.410156 C 235.652344 175.5625 235.269531 175.636719 234.875 175.636719 L 228.902344 175.636719 L 228.902344 166.675781 L 234.875 166.675781 C 235.269531 166.675781 235.652344 166.75 236.019531 166.902344 C 236.382812 167.054688 236.707031 167.269531 236.988281 167.550781 C 237.265625 167.828125 237.480469 168.152344 237.632812 168.519531 C 237.785156 168.886719 237.859375 169.265625 237.859375 169.660156 Z M 237.859375 172.648438 " fill-opacity="1" fill-rule="nonzero"/><path fill="#3a0e33" d="M 298 134.113281 C 297.40625 133.914062 296.792969 133.808594 296.164062 133.804688 C 295.535156 133.796875 294.917969 133.886719 294.316406 134.074219 C 293.71875 134.261719 293.160156 134.539062 292.648438 134.902344 C 292.132812 135.265625 291.6875 135.699219 291.3125 136.203125 L 278.171875 153.710938 L 265.15625 136.203125 C 264.777344 135.703125 264.335938 135.269531 263.824219 134.910156 C 263.308594 134.546875 262.753906 134.273438 262.15625 134.085938 C 261.558594 133.898438 260.945312 133.808594 260.320312 133.816406 C 259.691406 133.820312 259.082031 133.921875 258.488281 134.121094 C 257.894531 134.320312 257.34375 134.605469 256.839844 134.976562 C 256.332031 135.347656 255.898438 135.789062 255.53125 136.296875 C 255.164062 136.804688 254.886719 137.355469 254.691406 137.953125 C 254.5 138.550781 254.40625 139.164062 254.40625 139.789062 L 254.40625 187.585938 L 266.347656 187.585938 L 266.347656 157.714844 L 273.515625 167.273438 C 273.792969 167.644531 274.109375 167.976562 274.464844 168.273438 C 274.824219 168.570312 275.207031 168.824219 275.621094 169.03125 C 276.035156 169.238281 276.46875 169.394531 276.921875 169.503906 C 277.371094 169.609375 277.828125 169.660156 278.292969 169.660156 C 278.757812 169.660156 279.214844 169.609375 279.664062 169.503906 C 280.117188 169.394531 280.550781 169.238281 280.964844 169.03125 C 281.378906 168.824219 281.765625 168.570312 282.121094 168.273438 C 282.476562 167.976562 282.792969 167.644531 283.070312 167.273438 L 290.238281 157.714844 L 290.238281 187.585938 L 302.183594 187.585938 L 302.183594 139.789062 C 302.179688 139.15625 302.078125 138.539062 301.878906 137.9375 C 301.679688 137.335938 301.394531 136.777344 301.019531 136.269531 C 300.640625 135.757812 300.195312 135.320312 299.679688 134.949219 C 299.164062 134.582031 298.605469 134.304688 298 134.113281 Z M 298 134.113281 " fill-opacity="1" fill-rule="nonzero"/><path fill="#3a0e33" d="M 308.035156 133.816406 L 319.980469 133.816406 L 319.980469 187.585938 L 308.035156 187.585938 Z M 308.035156 133.816406 " fill-opacity="1" fill-rule="nonzero"/></svg>