<svg xmlns="http://www.w3.org/2000/svg" xmlns:xlink="http://www.w3.org/1999/xlink" width="500" zoomAndPan="magnify" viewBox="0 0 375 374.999991" height="500" preserveAspectRatio="xMidYMid meet" version="1.0"><path fill="#f47c94" d="M 68.75 6.25 L 106.25 6.25 L 106.25 362.5 L 68.75 362.5 Z M 68.75 6.25 " fill-opacity="1" fill-rule="nonzero"/><path fill="#b8bebf" d="M 168.75 237.5 L 243.75 237.5 L 243.75 343.75 L 168.75 343.75 Z M 168.75 237.5 " fill-opacity="1" fill-rule="nonzero"/><path fill="#a2bdcd" d="M 168.75 228.125 L 168.75 237.5 L 243.75 237.5 L 243.75 228.125 L 275 227.230469 L 275 175 C 275 154.289062 258.210938 137.5 237.5 137.5 L 175 137.5 C 154.289062 137.5 137.5 154.289062 137.5 175 L 137.5 227.230469 Z M 168.75 228.125 " fill-opacity="1" fill-rule="nonzero"/><path fill="#f3a268" d="M 206.25 162.5 C 197.617188 162.5 190.625 155.507812 190.625 146.875 L 190.625 125 L 221.875 125 L 221.875 146.875 C 221.875 155.507812 214.882812 162.5 206.25 162.5 Z M 206.25 162.5 " fill-opacity="1" fill-rule="nonzero"/><path fill="#608ea9" d="M 206.25 62.5 L 181.25 62.5 L 181.25 87.5 L 231.25 87.5 C 231.25 73.695312 220.054688 62.5 206.25 62.5 Z M 206.25 62.5 " fill-opacity="1" fill-rule="nonzero"/><path fill="#f3a268" d="M 262.5 368.75 L 206.25 368.75 L 206.25 343.75 L 243.75 343.75 C 254.105469 343.75 262.5 352.144531 262.5 362.5 Z M 262.5 368.75 " fill-opacity="1" fill-rule="nonzero"/><path fill="#f3a268" d="M 206.25 368.75 L 150 368.75 L 150 362.5 C 150 352.144531 158.394531 343.75 168.75 343.75 L 206.25 343.75 Z M 206.25 368.75 " fill-opacity="1" fill-rule="nonzero"/><path fill="#f3a268" d="M 243.75 228.125 C 243.75 237.289062 251.632812 244.605469 260.988281 243.667969 C 269.117188 242.855469 275 235.40625 275 227.230469 L 275 218.75 L 243.75 218.75 Z M 243.75 228.125 " fill-opacity="1" fill-rule="nonzero"/><path fill="#f3a268" d="M 137.5 228.125 C 137.5 237.289062 145.382812 244.605469 154.738281 243.667969 C 162.867188 242.855469 168.75 235.40625 168.75 227.230469 L 168.75 218.75 L 137.5 218.75 Z M 137.5 228.125 " fill-opacity="1" fill-rule="nonzero"/><path fill="#f6b98d" d="M 206.25 137.5 C 192.445312 137.5 181.25 126.304688 181.25 112.5 L 181.25 87.5 L 231.25 87.5 L 231.25 112.5 C 231.25 126.304688 220.054688 137.5 206.25 137.5 Z M 206.25 137.5 " fill-opacity="1" fill-rule="nonzero"/><path fill="#464a51" d="M 368.75 362.5 L 268.75 362.5 C 268.75 350.886719 260.757812 341.179688 250 338.386719 L 250 247.882812 C 250.324219 248.03125 250.667969 248.136719 251 248.273438 C 251.335938 248.414062 251.675781 248.550781 252.019531 248.675781 C 252.988281 249.019531 253.976562 249.304688 254.988281 249.511719 C 255.15625 249.550781 255.324219 249.605469 255.492188 249.636719 C 256.667969 249.851562 257.867188 249.949219 259.074219 249.96875 C 259.1875 249.96875 259.300781 250 259.414062 250 C 260.136719 250 260.867188 249.960938 261.605469 249.886719 C 272.617188 248.789062 281.25 238.835938 281.25 227.230469 L 281.25 175 C 281.25 150.875 261.617188 131.25 237.5 131.25 L 231.085938 131.25 C 235.054688 126.011719 237.5 119.5625 237.5 112.5 L 237.5 87.5 C 237.5 70.269531 223.480469 56.25 206.25 56.25 L 181.25 56.25 C 177.792969 56.25 175 59.050781 175 62.5 L 175 112.5 C 175 119.5625 177.445312 126.011719 181.414062 131.25 L 175 131.25 C 150.882812 131.25 131.25 150.875 131.25 175 L 131.25 228.125 C 131.25 234.292969 133.875 240.207031 138.449219 244.351562 C 139.851562 245.617188 141.445312 246.613281 143.101562 247.46875 C 143.179688 247.511719 143.269531 247.550781 143.355469 247.59375 C 144.304688 248.070312 145.273438 248.492188 146.289062 248.824219 C 146.832031 249.011719 147.386719 249.148438 147.949219 249.292969 C 148.632812 249.460938 149.304688 249.605469 150 249.710938 C 150.304688 249.757812 150.585938 249.863281 150.894531 249.894531 C 151.4375 249.945312 151.96875 249.929688 152.507812 249.945312 C 152.730469 249.949219 152.945312 250.007812 153.167969 250.007812 C 153.335938 250.007812 153.507812 249.988281 153.675781 249.980469 C 153.867188 249.976562 154.054688 249.960938 154.25 249.949219 C 154.617188 249.929688 154.988281 249.929688 155.363281 249.894531 C 155.582031 249.875 155.773438 249.792969 155.992188 249.769531 C 157.007812 249.636719 157.992188 249.429688 158.976562 249.164062 C 159.136719 249.113281 159.304688 249.09375 159.46875 249.042969 C 160.507812 248.730469 161.53125 248.355469 162.511719 247.894531 L 162.511719 338.398438 C 151.757812 341.195312 143.761719 350.898438 143.761719 362.511719 L 112.511719 362.511719 L 112.511719 6.25 C 112.511719 2.800781 109.71875 0 106.261719 0 L 68.761719 0 C 65.304688 0 62.511719 2.800781 62.511719 6.25 L 62.511719 362.5 L 6.25 362.5 C 2.792969 362.5 0 365.300781 0 368.75 C 0 372.199219 2.792969 375 6.25 375 L 368.75 375 C 372.207031 375 375 372.199219 375 368.75 C 375 365.300781 372.207031 362.5 368.75 362.5 Z M 206.25 262.5 C 202.792969 262.5 200 265.300781 200 268.75 L 200 337.5 L 175 337.5 L 175 243.75 L 237.5 243.75 L 237.5 337.5 L 212.5 337.5 L 212.5 268.75 C 212.5 265.300781 209.707031 262.5 206.25 262.5 Z M 152.679688 237.445312 C 152.5 237.4375 152.304688 237.460938 152.125 237.445312 C 151.875 237.417969 151.644531 237.335938 151.398438 237.292969 C 151.070312 237.230469 150.730469 237.179688 150.414062 237.082031 C 146.5625 235.832031 143.75 231.832031 143.75 227.230469 L 143.75 225 L 162.5 225 L 162.5 227.230469 C 162.5 231.820312 159.695312 235.820312 155.855469 237.074219 C 154.84375 237.382812 153.773438 237.492188 152.679688 237.445312 Z M 268.75 227.230469 C 268.75 232.488281 265.070312 236.976562 260.363281 237.445312 C 258.332031 237.636719 256.367188 237.21875 254.679688 236.238281 C 254.117188 235.914062 253.585938 235.519531 253.085938 235.074219 C 251.125 233.304688 250 230.769531 250 228.125 L 250 225 L 268.75 225 Z M 187.5 93.75 L 225 93.75 L 225 112.5 C 225 122.835938 216.585938 131.25 206.25 131.25 C 195.914062 131.25 187.5 122.835938 187.5 112.5 Z M 196.875 142.15625 C 199.855469 143.101562 202.960938 143.75 206.25 143.75 C 209.539062 143.75 212.644531 143.101562 215.625 142.15625 L 215.625 146.875 C 215.625 152.042969 211.417969 156.25 206.25 156.25 C 201.082031 156.25 196.875 152.042969 196.875 146.875 Z M 187.5 68.75 L 206.25 68.75 C 214.398438 68.75 221.351562 73.976562 223.929688 81.25 L 187.5 81.25 Z M 175 143.75 L 184.375 143.75 L 184.375 146.875 C 184.375 158.9375 194.1875 168.75 206.25 168.75 C 218.3125 168.75 228.125 158.9375 228.125 146.875 L 228.125 143.75 L 237.5 143.75 C 254.730469 143.75 268.75 157.769531 268.75 175 L 268.75 212.5 L 250 212.5 L 250 175 C 250 171.550781 247.207031 168.75 243.75 168.75 C 240.292969 168.75 237.5 171.550781 237.5 175 L 237.5 231.25 L 175 231.25 L 175 175 C 175 171.550781 172.207031 168.75 168.75 168.75 C 165.292969 168.75 162.5 171.550781 162.5 175 L 162.5 212.5 L 143.75 212.5 L 143.75 175 C 143.75 157.769531 157.769531 143.75 175 143.75 Z M 75 362.5 L 75 343.75 L 81.25 343.75 C 84.707031 343.75 87.5 340.949219 87.5 337.5 C 87.5 334.050781 84.707031 331.25 81.25 331.25 L 75 331.25 L 75 318.75 L 81.25 318.75 C 84.707031 318.75 87.5 315.949219 87.5 312.5 C 87.5 309.050781 84.707031 306.25 81.25 306.25 L 75 306.25 L 75 293.75 L 81.25 293.75 C 84.707031 293.75 87.5 290.949219 87.5 287.5 C 87.5 284.050781 84.707031 281.25 81.25 281.25 L 75 281.25 L 75 268.75 L 81.25 268.75 C 84.707031 268.75 87.5 265.949219 87.5 262.5 C 87.5 259.050781 84.707031 256.25 81.25 256.25 L 75 256.25 L 75 243.75 L 81.25 243.75 C 84.707031 243.75 87.5 240.949219 87.5 237.5 C 87.5 234.050781 84.707031 231.25 81.25 231.25 L 75 231.25 L 75 218.75 L 81.25 218.75 C 84.707031 218.75 87.5 215.949219 87.5 212.5 C 87.5 209.050781 84.707031 206.25 81.25 206.25 L 75 206.25 L 75 193.75 L 81.25 193.75 C 84.707031 193.75 87.5 190.949219 87.5 187.5 C 87.5 184.050781 84.707031 181.25 81.25 181.25 L 75 181.25 L 75 168.75 L 81.25 168.75 C 84.707031 168.75 87.5 165.949219 87.5 162.5 C 87.5 159.050781 84.707031 156.25 81.25 156.25 L 75 156.25 L 75 143.75 L 81.25 143.75 C 84.707031 143.75 87.5 140.949219 87.5 137.5 C 87.5 134.050781 84.707031 131.25 81.25 131.25 L 75 131.25 L 75 118.75 L 81.25 118.75 C 84.707031 118.75 87.5 115.949219 87.5 112.5 C 87.5 109.050781 84.707031 106.25 81.25 106.25 L 75 106.25 L 75 93.75 L 81.25 93.75 C 84.707031 93.75 87.5 90.949219 87.5 87.5 C 87.5 84.050781 84.707031 81.25 81.25 81.25 L 75 81.25 L 75 68.75 L 81.25 68.75 C 84.707031 68.75 87.5 65.949219 87.5 62.5 C 87.5 59.050781 84.707031 56.25 81.25 56.25 L 75 56.25 L 75 43.75 L 81.25 43.75 C 84.707031 43.75 87.5 40.949219 87.5 37.5 C 87.5 34.050781 84.707031 31.25 81.25 31.25 L 75 31.25 L 75 12.5 L 100 12.5 L 100 362.5 Z M 168.75 350 L 200 350 L 200 362.5 L 156.25 362.5 C 156.25 355.605469 161.855469 350 168.75 350 Z M 212.5 362.5 L 212.5 350 L 243.75 350 C 250.644531 350 256.25 355.605469 256.25 362.5 Z M 212.5 362.5 " fill-opacity="1" fill-rule="nonzero"/><path fill="#464a51" d="M 310.667969 326.832031 C 308.226562 324.386719 304.273438 324.386719 301.832031 326.832031 C 299.386719 329.273438 299.386719 333.226562 301.832031 335.667969 L 314.332031 348.167969 C 315.550781 349.386719 317.148438 350 318.75 350 C 320.351562 350 321.949219 349.386719 323.167969 348.167969 L 335.667969 335.667969 C 338.113281 333.226562 338.113281 329.273438 335.667969 326.832031 C 333.226562 324.386719 329.273438 324.386719 326.832031 326.832031 L 325 328.664062 L 325 77.585938 L 326.832031 79.417969 C 328.050781 80.636719 329.648438 81.25 331.25 81.25 C 332.851562 81.25 334.449219 80.636719 335.667969 79.417969 C 338.113281 76.976562 338.113281 73.023438 335.667969 70.582031 L 323.167969 58.082031 C 320.726562 55.636719 316.773438 55.636719 314.332031 58.082031 L 301.832031 70.582031 C 299.386719 73.023438 299.386719 76.976562 301.832031 79.417969 C 304.273438 81.863281 308.226562 81.863281 310.667969 79.417969 L 312.5 77.585938 L 312.5 328.664062 Z M 310.667969 326.832031 " fill-opacity="1" fill-rule="nonzero"/></svg>