<svg xmlns="http://www.w3.org/2000/svg" xmlns:xlink="http://www.w3.org/1999/xlink" width="500" zoomAndPan="magnify" viewBox="0 0 375 374.999991" height="500" preserveAspectRatio="xMidYMid meet" version="1.0"><defs><clipPath id="2a841794a9"><path d="M 53.183594 0 L 321.683594 0 L 321.683594 375 L 53.183594 375 Z M 53.183594 0 " clip-rule="nonzero"/></clipPath></defs><path fill="#b8bebf" d="M 190.554688 212.488281 L 265.484375 212.488281 L 265.484375 318.691406 L 190.554688 318.691406 Z M 190.554688 212.488281 " fill-opacity="1" fill-rule="nonzero"/><path fill="#a2bdcd" d="M 190.554688 203.117188 L 190.554688 212.488281 L 265.484375 212.488281 L 265.484375 203.117188 L 296.703125 202.222656 L 296.703125 150.015625 C 296.703125 129.3125 279.933594 112.535156 259.238281 112.535156 L 196.796875 112.535156 C 176.105469 112.535156 159.332031 129.3125 159.332031 150.015625 L 159.332031 202.222656 Z M 190.554688 203.117188 " fill-opacity="1" fill-rule="nonzero"/><path fill="#f3a268" d="M 228.019531 137.523438 C 219.394531 137.523438 212.410156 130.53125 212.410156 121.90625 L 212.410156 100.039062 L 243.628906 100.039062 L 243.628906 121.90625 C 243.628906 130.53125 236.640625 137.523438 228.019531 137.523438 Z M 228.019531 137.523438 " fill-opacity="1" fill-rule="nonzero"/><path fill="#608ea9" d="M 228.019531 37.566406 L 203.042969 37.566406 L 203.042969 62.554688 L 252.996094 62.554688 C 252.996094 48.757812 241.8125 37.566406 228.019531 37.566406 Z M 228.019531 37.566406 " fill-opacity="1" fill-rule="nonzero"/><path fill="#f3a268" d="M 284.214844 343.679688 L 228.019531 343.679688 L 228.019531 318.691406 L 265.484375 318.691406 C 275.832031 318.691406 284.214844 327.082031 284.214844 337.433594 Z M 284.214844 343.679688 " fill-opacity="1" fill-rule="nonzero"/><path fill="#f3a268" d="M 228.019531 343.679688 L 171.820312 343.679688 L 171.820312 337.433594 C 171.820312 327.082031 180.207031 318.691406 190.554688 318.691406 L 228.019531 318.691406 Z M 228.019531 343.679688 " fill-opacity="1" fill-rule="nonzero"/><path fill="#f3a268" d="M 265.484375 203.117188 C 265.484375 212.277344 273.359375 219.589844 282.707031 218.65625 C 290.828125 217.84375 296.703125 210.394531 296.703125 202.222656 L 296.703125 193.746094 L 265.484375 193.746094 Z M 265.484375 203.117188 " fill-opacity="1" fill-rule="nonzero"/><path fill="#f3a268" d="M 159.332031 203.117188 C 159.332031 212.277344 167.207031 219.589844 176.554688 218.65625 C 184.679688 217.84375 190.554688 210.394531 190.554688 202.222656 L 190.554688 193.746094 L 159.332031 193.746094 Z M 159.332031 203.117188 " fill-opacity="1" fill-rule="nonzero"/><path fill="#f6b98d" d="M 228.019531 112.535156 C 214.226562 112.535156 203.042969 101.34375 203.042969 87.546875 L 203.042969 62.554688 L 252.996094 62.554688 L 252.996094 87.546875 C 252.996094 101.34375 241.8125 112.535156 228.019531 112.535156 Z M 228.019531 112.535156 " fill-opacity="1" fill-rule="nonzero"/><path fill="#d0d8da" d="M 103.136719 87.546875 L 128.113281 87.546875 L 128.113281 343.679688 L 103.136719 343.679688 Z M 103.136719 87.546875 " fill-opacity="1" fill-rule="nonzero"/><path fill="#e9f1f2" d="M 65.671875 368.667969 L 315.4375 368.667969 L 315.4375 362.421875 C 315.4375 352.070312 307.050781 343.679688 296.703125 343.679688 L 84.402344 343.679688 C 74.054688 343.679688 65.671875 352.070312 65.671875 362.421875 Z M 65.671875 368.667969 " fill-opacity="1" fill-rule="nonzero"/><path fill="#f47c94" d="M 171.820312 62.554688 C 171.820312 64.398438 171.730469 66.234375 171.550781 68.066406 C 171.371094 69.898438 171.101562 71.71875 170.742188 73.523438 C 170.382812 75.332031 169.9375 77.117188 169.402344 78.878906 C 168.867188 80.640625 168.246094 82.371094 167.542969 84.074219 C 166.839844 85.773438 166.054688 87.4375 165.1875 89.058594 C 164.316406 90.683594 163.371094 92.261719 162.351562 93.792969 C 161.328125 95.324219 160.234375 96.800781 159.066406 98.226562 C 157.898438 99.648438 156.664062 101.011719 155.363281 102.3125 C 154.058594 103.613281 152.699219 104.851562 151.273438 106.019531 C 149.851562 107.1875 148.375 108.28125 146.84375 109.304688 C 145.316406 110.328125 143.738281 111.273438 142.113281 112.140625 C 140.492188 113.011719 138.828125 113.796875 137.128906 114.5 C 135.429688 115.207031 133.699219 115.824219 131.9375 116.359375 C 130.175781 116.894531 128.390625 117.339844 126.585938 117.699219 C 124.78125 118.058594 122.964844 118.328125 121.132812 118.511719 C 119.300781 118.691406 117.464844 118.78125 115.625 118.78125 C 113.78125 118.78125 111.945312 118.691406 110.117188 118.511719 C 108.285156 118.328125 106.464844 118.058594 104.660156 117.699219 C 102.855469 117.339844 101.070312 116.894531 99.308594 116.359375 C 97.550781 115.824219 95.816406 115.207031 94.117188 114.5 C 92.417969 113.796875 90.753906 113.011719 89.132812 112.140625 C 87.507812 111.273438 85.933594 110.328125 84.402344 109.304688 C 82.871094 108.28125 81.394531 107.1875 79.972656 106.019531 C 78.550781 104.851562 77.1875 103.613281 75.886719 102.3125 C 74.585938 101.011719 73.351562 99.648438 72.183594 98.226562 C 71.015625 96.800781 69.917969 95.324219 68.898438 93.792969 C 67.875 92.261719 66.929688 90.683594 66.0625 89.058594 C 65.195312 87.4375 64.40625 85.773438 63.703125 84.074219 C 63 82.371094 62.378906 80.640625 61.847656 78.878906 C 61.3125 77.117188 60.863281 75.332031 60.503906 73.523438 C 60.148438 71.71875 59.878906 69.898438 59.695312 68.066406 C 59.515625 66.234375 59.425781 64.398438 59.425781 62.554688 C 59.425781 60.714844 59.515625 58.878906 59.695312 57.046875 C 59.878906 55.210938 60.148438 53.394531 60.503906 51.585938 C 60.863281 49.78125 61.3125 47.996094 61.847656 46.234375 C 62.378906 44.472656 63 42.742188 63.703125 41.039062 C 64.40625 39.339844 65.195312 37.675781 66.0625 36.050781 C 66.929688 34.429688 67.875 32.851562 68.898438 31.320312 C 69.917969 29.789062 71.015625 28.3125 72.183594 26.886719 C 73.351562 25.464844 74.585938 24.101562 75.886719 22.800781 C 77.1875 21.496094 78.550781 20.261719 79.972656 19.09375 C 81.394531 17.925781 82.871094 16.832031 84.402344 15.808594 C 85.933594 14.785156 87.507812 13.839844 89.132812 12.96875 C 90.753906 12.101562 92.417969 11.316406 94.117188 10.613281 C 95.816406 9.90625 97.550781 9.289062 99.308594 8.753906 C 101.070312 8.21875 102.855469 7.769531 104.660156 7.410156 C 106.464844 7.054688 108.285156 6.78125 110.117188 6.601562 C 111.945312 6.421875 113.78125 6.332031 115.625 6.332031 C 117.464844 6.332031 119.300781 6.421875 121.132812 6.601562 C 122.964844 6.78125 124.78125 7.054688 126.585938 7.410156 C 128.390625 7.769531 130.175781 8.21875 131.9375 8.753906 C 133.699219 9.289062 135.429688 9.90625 137.128906 10.613281 C 138.828125 11.316406 140.492188 12.101562 142.113281 12.96875 C 143.738281 13.839844 145.316406 14.785156 146.84375 15.808594 C 148.375 16.832031 149.851562 17.925781 151.273438 19.09375 C 152.699219 20.261719 154.058594 21.496094 155.363281 22.800781 C 156.664062 24.101562 157.898438 25.464844 159.066406 26.886719 C 160.234375 28.3125 161.328125 29.789062 162.351562 31.320312 C 163.371094 32.851562 164.316406 34.429688 165.1875 36.050781 C 166.054688 37.675781 166.839844 39.339844 167.542969 41.039062 C 168.246094 42.742188 168.867188 44.472656 169.402344 46.234375 C 169.9375 47.996094 170.382812 49.78125 170.742188 51.585938 C 171.101562 53.394531 171.371094 55.210938 171.550781 57.046875 C 171.730469 58.878906 171.820312 60.714844 171.820312 62.554688 Z M 171.820312 62.554688 " fill-opacity="1" fill-rule="nonzero"/><g clip-path="url(#2a841794a9)"><path fill="#464a51" d="M 296.703125 337.433594 L 290.460938 337.433594 C 290.460938 325.824219 282.472656 316.125 271.726562 313.332031 L 271.726562 222.867188 C 275.292969 224.550781 279.285156 225.269531 283.324219 224.871094 C 294.324219 223.769531 302.949219 213.824219 302.949219 202.222656 L 302.949219 150.015625 C 302.949219 125.902344 283.335938 106.285156 259.238281 106.285156 L 252.832031 106.285156 C 256.796875 101.050781 259.238281 94.605469 259.238281 87.546875 L 259.238281 62.554688 C 259.238281 45.332031 245.234375 31.320312 228.019531 31.320312 L 203.042969 31.320312 C 199.589844 31.320312 196.796875 34.117188 196.796875 37.566406 L 196.796875 87.546875 C 196.796875 94.605469 199.238281 101.050781 203.203125 106.285156 L 196.796875 106.285156 C 172.703125 106.285156 153.089844 125.902344 153.089844 150.015625 L 153.089844 202.222656 C 153.089844 213.820312 161.710938 223.765625 172.714844 224.871094 C 176.742188 225.265625 180.738281 224.550781 184.308594 222.867188 L 184.308594 313.332031 C 173.5625 316.125 165.578125 325.824219 165.578125 337.433594 L 134.355469 337.433594 L 134.355469 122.148438 C 159.65625 114.171875 178.066406 90.476562 178.066406 62.554688 C 178.066406 28.109375 150.054688 0.0859375 115.625 0.0859375 C 81.191406 0.0859375 53.183594 28.109375 53.183594 62.554688 C 53.183594 90.476562 71.589844 114.164062 96.890625 122.148438 L 96.890625 337.433594 L 84.402344 337.433594 C 70.628906 337.433594 59.425781 348.640625 59.425781 362.421875 L 59.425781 368.667969 C 59.425781 372.117188 62.21875 374.914062 65.671875 374.914062 L 315.4375 374.914062 C 318.890625 374.914062 321.683594 372.117188 321.683594 368.667969 L 321.683594 362.421875 C 321.683594 348.640625 310.480469 337.433594 296.703125 337.433594 Z M 277.972656 337.433594 L 234.261719 337.433594 L 234.261719 324.9375 L 265.484375 324.9375 C 272.371094 324.9375 277.972656 330.542969 277.972656 337.433594 Z M 196.796875 218.734375 L 259.238281 218.734375 L 259.238281 312.445312 L 234.261719 312.445312 L 234.261719 243.726562 C 234.261719 240.277344 231.472656 237.476562 228.019531 237.476562 C 224.566406 237.476562 221.773438 240.277344 221.773438 243.726562 L 221.773438 312.445312 L 196.796875 312.445312 Z M 282.082031 212.4375 C 279.363281 212.695312 276.796875 211.863281 274.8125 210.070312 C 272.851562 208.296875 271.726562 205.761719 271.726562 203.117188 L 271.726562 199.996094 L 290.460938 199.996094 L 290.460938 202.222656 C 290.460938 207.484375 286.78125 211.96875 282.082031 212.4375 Z M 209.285156 68.804688 L 246.75 68.804688 L 246.75 87.546875 C 246.75 97.878906 238.347656 106.285156 228.019531 106.285156 C 217.691406 106.285156 209.285156 97.878906 209.285156 87.546875 Z M 218.652344 117.1875 C 221.632812 118.132812 224.734375 118.78125 228.019531 118.78125 C 231.304688 118.78125 234.40625 118.132812 237.386719 117.1875 L 237.386719 121.90625 C 237.386719 127.070312 233.183594 131.273438 228.019531 131.273438 C 222.855469 131.273438 218.652344 127.070312 218.652344 121.90625 Z M 209.285156 43.816406 L 228.019531 43.816406 C 236.160156 43.816406 243.105469 49.039062 245.683594 56.308594 L 209.285156 56.308594 Z M 196.796875 118.78125 L 206.164062 118.78125 L 206.164062 121.90625 C 206.164062 133.960938 215.96875 143.769531 228.019531 143.769531 C 240.070312 143.769531 249.875 133.960938 249.875 121.90625 L 249.875 118.78125 L 259.238281 118.78125 C 276.457031 118.78125 290.460938 132.792969 290.460938 150.015625 L 290.460938 187.5 L 271.726562 187.5 L 271.726562 150.015625 C 271.726562 146.570312 268.9375 143.769531 265.484375 143.769531 C 262.03125 143.769531 259.238281 146.570312 259.238281 150.015625 L 259.238281 206.242188 L 196.796875 206.242188 L 196.796875 150.015625 C 196.796875 146.570312 194.007812 143.769531 190.554688 143.769531 C 187.101562 143.769531 184.308594 146.570312 184.308594 150.015625 L 184.308594 187.5 L 165.578125 187.5 L 165.578125 150.015625 C 165.578125 132.792969 179.582031 118.78125 196.796875 118.78125 Z M 181.226562 210.070312 C 179.238281 211.871094 176.640625 212.699219 173.957031 212.4375 C 169.253906 211.96875 165.578125 207.484375 165.578125 202.222656 L 165.578125 199.996094 L 184.308594 199.996094 L 184.308594 203.117188 C 184.308594 205.761719 183.1875 208.296875 181.226562 210.070312 Z M 190.554688 324.9375 L 221.773438 324.9375 L 221.773438 337.433594 L 178.066406 337.433594 C 178.066406 330.542969 183.667969 324.9375 190.554688 324.9375 Z M 89.128906 89.0625 C 86.6875 86.621094 82.742188 86.621094 80.300781 89.0625 L 76.210938 93.15625 C 70.839844 86.246094 67.242188 77.910156 66.101562 68.808594 L 71.914062 68.808594 C 75.367188 68.808594 78.160156 66.011719 78.160156 62.5625 C 78.160156 59.113281 75.367188 56.316406 71.914062 56.316406 L 66.101562 56.316406 C 67.242188 47.214844 70.839844 38.878906 76.210938 31.96875 L 80.300781 36.0625 C 81.519531 37.28125 83.117188 37.890625 84.714844 37.890625 C 86.3125 37.890625 87.910156 37.28125 89.128906 36.0625 C 91.570312 33.621094 91.570312 29.671875 89.128906 27.226562 L 85.039062 23.136719 C 91.945312 17.765625 100.277344 14.164062 109.378906 13.023438 L 109.378906 18.824219 C 109.378906 22.273438 112.171875 25.074219 115.625 25.074219 C 119.078125 25.074219 121.867188 22.273438 121.867188 18.824219 L 121.867188 13.011719 C 130.972656 14.152344 139.300781 17.75 146.207031 23.125 L 142.117188 27.214844 C 139.675781 29.660156 139.675781 33.605469 142.117188 36.050781 C 143.335938 37.269531 144.933594 37.878906 146.53125 37.878906 C 148.132812 37.878906 149.730469 37.269531 150.945312 36.050781 L 155.035156 31.957031 C 160.40625 38.867188 164.003906 47.199219 165.144531 56.304688 L 159.332031 56.304688 C 155.878906 56.304688 153.089844 59.101562 153.089844 62.550781 C 153.089844 66 155.878906 68.796875 159.332031 68.796875 L 165.144531 68.796875 C 164.003906 77.898438 160.40625 86.234375 155.035156 93.140625 L 150.945312 89.050781 C 148.503906 86.609375 144.558594 86.609375 142.117188 89.050781 C 139.675781 91.492188 139.675781 95.441406 142.117188 97.882812 L 146.207031 101.976562 C 139.300781 107.347656 130.972656 110.945312 121.867188 112.089844 L 121.867188 106.285156 C 121.867188 102.839844 119.078125 100.039062 115.625 100.039062 C 112.171875 100.039062 109.378906 102.839844 109.378906 106.285156 L 109.378906 112.101562 C 100.277344 110.960938 91.945312 107.359375 85.039062 101.988281 L 89.128906 97.898438 C 91.566406 95.453125 91.566406 91.5 89.128906 89.0625 Z M 109.378906 124.710938 C 111.433594 124.914062 113.511719 125.027344 115.625 125.027344 C 117.734375 125.027344 119.8125 124.914062 121.867188 124.710938 L 121.867188 337.433594 L 109.378906 337.433594 Z M 71.914062 362.421875 C 71.914062 355.53125 77.515625 349.925781 84.402344 349.925781 L 296.703125 349.925781 C 303.59375 349.925781 309.195312 355.53125 309.195312 362.421875 Z M 71.914062 362.421875 " fill-opacity="1" fill-rule="nonzero"/></g><path fill="#464a51" d="M 129.941406 85.714844 C 131.160156 86.933594 132.757812 87.546875 134.355469 87.546875 C 135.953125 87.546875 137.554688 86.933594 138.769531 85.714844 C 141.210938 83.273438 141.210938 79.324219 138.769531 76.882812 L 120.039062 58.140625 C 117.597656 55.695312 113.652344 55.695312 111.210938 58.140625 C 108.765625 60.582031 108.765625 64.53125 111.210938 66.972656 Z M 129.941406 85.714844 " fill-opacity="1" fill-rule="nonzero"/></svg>